<?xml version="1.0" encoding="utf-8"?>
<!-- Generator: Adobe Illustrator 19.2.0, SVG Export Plug-In . SVG Version: 6.00 Build 0)  -->
<svg version="1.1" id="Layer_1" xmlns="http://www.w3.org/2000/svg" xmlns:xlink="http://www.w3.org/1999/xlink" x="0px" y="0px"
	 viewBox="0 0 531.4 70.6" style="enable-background:new 0 0 531.4 70.6;" xml:space="preserve">
<style type="text/css">
	.st0{fill-rule:evenodd;clip-rule:evenodd;fill:#2687E9;}
	.st1{fill:#2687E9;}
</style>
<path id="icon_1_" class="st0" d="M13.8,26.8c11.6,4.4,17.9,16,17.9,16c15.5-36.8,74-42.6,74-42.6C98,2.2,92.7,22.2,92.7,22.2
	c-1.5,8.2-8.9,22.7-8.9,22.7C65.1,73.7,39.5,70.5,39.5,70.5c-45,0-39.2-55.1-39.2-55.1C0.4,19.8,13.8,26.8,13.8,26.8z M7.9,37.7
	c0,0,22.9,19,24.5,27.7c0,0,23.7-40,55.6-50.4c0,0-38.6,9.2-55.6,42.2C32.4,57.2,21.9,42.8,7.9,37.7z"/>
<g id="ContaAzul_1_">
	<path class="st1" d="M171.6,45.8c-0.7,7.8-3.6,13.9-8.8,18.3c-5.3,4.3-12.3,6.4-21.1,6.4c-10.1,0-17.9-3-23.2-9.2
		c-5.3-5.8-8-14.5-8-25.9c0-11.7,2.7-20.5,8.2-26.3C124.4,3.1,132.5,0,143,0c8.6,0,15.4,2.1,20.5,6.4c4.8,4.2,7.5,10,8.2,17.5h-8.4
		c-3.1,0-5.3-1.4-6.6-4.1c-0.9-1.7-2-3.2-3.3-4.5c-2.6-1.9-6-2.9-10.3-2.9c-6,0-10.6,1.9-13.8,5.8c-3.1,3.9-4.7,9.6-4.7,17.2
		c0,7.3,1.6,12.9,4.7,16.8c3,4,7.5,6,13.4,6c4.2,0,7.6-1,10.3-3.1c2.5-1.9,4.2-5.1,5.3-9.4H171.6z"/>
	<path class="st1" d="M183,64.3c-2.7-2.3-4.7-5.5-5.8-9.5c-1.2-4-1.8-8.1-1.8-12.4c0-3.5,0.5-7,1.5-10.5c1-3.5,2.5-6.4,4.6-8.8
		c3.4-3.9,7.7-6.2,13.1-6.9c5.3-0.7,10.1-0.3,14.4,1.3c4.9,1.9,8.6,5.3,10.9,10.1c2.2,4.3,3.3,9.3,3.3,15c0,4.2-0.5,7.7-1.4,10.7
		c-0.9,3-2.1,5.5-3.5,7.6c-3.1,4.3-7.1,7-11.9,8c-4.3,1.2-8.6,1.3-13,0.3C189.1,68.3,185.6,66.7,183,64.3z M192.3,30
		c-2.7,3-4,7.4-3.7,13.4c0.3,5.9,1.4,10,3.3,12.4c0.8,1,2.1,1.9,4.1,2.6c2,0.7,3.9,0.8,5.9,0.2c2-0.6,3.8-2,5.4-4.4
		c1.6-2.3,2.4-6.1,2.5-11.3c0-4.7-0.8-8.2-2.2-10.5c-1.5-2.3-3.2-3.8-5.2-4.5c-1.9-0.6-3.9-0.7-5.8-0.1
		C194.7,28.4,193.2,29.1,192.3,30z"/>
	<path class="st1" d="M272.5,69h-6.8c-1.9,0-3.5-0.6-4.8-1.9c-1.2-1.2-1.9-2.8-1.9-4.8V35.9c0-3.1-0.9-5.4-2.8-6.8
		c-1.9-1.4-4-2.1-6.3-2.1c-2.3,0-4.4,0.7-6.2,2.1c-1.8,1.4-2.7,3.7-2.7,6.8V69h-13.6V38.6c0-8.8,2.3-14.7,6.9-17.7
		c4.6-3,9.7-4.6,15.3-4.9c5.7,0,11,1.5,15.8,4.5c4.8,3,7.2,9,7.2,18.1V69z"/>
	<path class="st1" d="M299.6,69c-4.3,0.3-8.9,0.2-13.9-0.2c-5-0.4-7.5-3.6-7.5-9.6V1.9h7c1.7,0,3.2,0.7,4.5,1.9
		c1.3,1.3,1.9,2.9,1.9,4.7v8.8h8v2.7c0,1.9-0.7,3.5-2,4.8c-1.3,1.2-2.9,1.9-4.7,1.9h-1.4v28.8c0,2.2,1.3,3.3,3.9,3.3h4.1V69z"/>
	<path class="st1" d="M335.9,66.9c-2.7,1.4-5.6,2.3-8.7,2.6c-3.1,0.3-5.7,0.5-8.1,0.5c-4.7,0-8.8-1.3-12.3-3.8
		c-3.5-2.5-5.3-6.7-5.3-12.6c0-5.5,1.6-9.4,4.8-11.7c3.2-2.3,7.2-3.9,12.2-4.7c0.6,0,1.4-0.1,2.3-0.3c0.9-0.2,1.9-0.4,3.1-0.5
		c5.7-0.8,8.6-2.5,8.6-5.1c0-1.9-1-3.2-3-3.8c-2-0.6-3.9-0.9-5.6-0.9c-1.8,0-3.4,0.3-4.9,0.8c-1.4,0.5-2.5,1.5-3.1,2.9H303
		c0.5-4,2.3-7.3,5.5-9.9c3.5-3,8.5-4.5,15-4.5c7.3,0,12.7,1.2,16.4,3.7c3.8,2.6,5.7,6.2,5.7,10.9v17.7c0,5.2-0.9,9.3-2.8,12.2
		C340.8,63.4,338.5,65.6,335.9,66.9z M332.8,42.9c-1.8,0.9-4.4,1.8-7.6,2.5l-4.5,1c-2.3,0.7-4,1.5-5.1,2.5c-0.9,1.4-1.4,2.9-1.4,4.3
		c0,1.9,0.6,3.5,1.8,4.7c1.2,1,2.9,1.6,5.1,1.6c3.6,0,6.5-1,8.6-3.1c2.1-2.1,3.1-4.9,3.1-8.6V42.9z"/>
	<path class="st1" d="M378.3,1.9h10.9L413.6,69H399l-4.5-13.8h-26.1L364.1,69h-14.6l22.2-62.6C372.8,3.4,375,1.9,378.3,1.9z
		 M381.4,15.4l-9.4,28.5h18.7L381.4,15.4z"/>
	<path class="st1" d="M418.7,69V58.7l27.9-30.8h-19.7c-1.8,0-3.4-0.6-4.7-1.9c-1.3-1.2-1.9-2.8-1.9-4.6v-4.3h42.5v11.1l-27.5,29.4
		h28.5V69H418.7z"/>
	<path class="st1" d="M513.1,17.2v30.4c0,9.2-2.4,15.3-7.2,18.1c-4.8,2.9-10.1,4.3-15.8,4.3c-5.6-0.3-10.7-1.8-15.3-4.7
		c-4.6-2.9-6.9-8.8-6.9-17.7V17.2h13.6v33.1c0,3.1,0.9,5.4,2.7,6.8c1.8,1.4,3.9,2.1,6.2,2.1c2.3,0,4.5-0.7,6.3-2.1
		c1.9-1.4,2.8-3.7,2.8-6.8V23.8c0-1.8,0.6-3.4,1.9-4.7c1.2-1.3,2.8-1.9,4.8-1.9H513.1z"/>
	<path class="st1" d="M517.8,1.9h7c1.8,0,3.4,0.6,4.7,1.9c1.3,1.2,2,2.8,2,4.6V69h-13.6V1.9z"/>
</g>
</svg>
