<svg id="Layer_1" data-name="Layer 1" xmlns="http://www.w3.org/2000/svg" viewBox="0 0 651.25 104.69"><defs><style>.cls-1{fill:#0d2240;}.cls-2{fill:#007078;}</style></defs><title>endeavor</title><polygon class="cls-1" points="422.76 1.2 437.73 1.2 458.96 45.44 479.31 1.2 488.06 1.2 460.04 58.43 452.14 58.43 422.76 1.2"/><path class="cls-1" d="M243.5,28.6c0-12.35-8.29-21.6-27.73-21.73-5.06,0-8.27.05-11,.26V45.55c0,5.79,2.69,6.94,11.76,6.94,15.61,0,27-9.92,27-23.9M256.77,28c0,15.8-13.25,29.83-39.82,29.83H191.88V1.2h28.55c25.72,0,36.34,14,36.34,26.79"/><path class="cls-1" d="M78.19,20.33c0-6.83-7.31-14.68-18.77-14.68-12.45,0-19,9.41-20.07,19.23H70.13c6.07,0,8.06-1.73,8.06-4.55m13.08,5.14c0,3.53-1.52,4.8-5.05,4.8H39.33C40.57,45,52.34,52.65,66,52.65a59.07,59.07,0,0,0,22.84-4.76l2,4.87A72.34,72.34,0,0,1,60.17,59C43.29,59,26.54,50.4,25.92,30.27H0l2.74-5.39H26.25C28.79,9.41,44.56,0,59.32,0c23.61,0,32,16.59,32,25.47"/><path class="cls-1" d="M554.46,29.52c0-14-8.82-24.05-23.07-24.05-12.63,0-22.89,9.36-22.89,23.14,0,14.81,9.11,24.9,23.36,24.9,11.91,0,22.6-8.38,22.6-24m12.91,0C567.37,48.16,549.2,59,531.48,59s-35.86-10.88-35.86-29.54S513.76,0,531.48,0s35.89,10.82,35.89,29.5"/><polygon class="cls-1" points="109.78 57.81 109.78 1.2 122.08 1.2 162.97 40.65 162.97 1.2 171.18 1.2 171.18 57.81 162.87 57.81 118 14.96 118 57.81 109.78 57.81"/><path class="cls-1" d="M397.8,26.85v12c0,8.85-8.45,13.73-18.86,13.73-8.5,0-13.63-3.58-13.63-10.75,0-12.37,21.67-14.95,32-14.95h0.5Zm-1.23-4.63c-21.43,0-44.37,6.08-44.37,20.25,0,9.07,7,16.47,20.08,16.47a51.71,51.71,0,0,0,25.55-7.08v6h12.85V24c0-18.23-10.38-24-26.08-24a70.53,70.53,0,0,0-28.91,5.78l2.08,5.47c6.91-3.28,14.94-5.52,22-5.52,13,0,18,7.46,18,16.5h-1.23Z"/><path class="cls-1" d="M596.5,29.66v-23c2.81-.21,5.47-0.35,8-0.33,11.91,0.06,16.75,3.94,16.75,11.48,0,9.08-8.77,11.89-22,11.89H596.5ZM583.63,1.2V57.81H596.5V35c2.48,0,4.1,0,7,0,13.18,13.18,24.38,22,45.91,23.82l1.82-3.57C635.57,51,623.75,40,616.73,32.5c8.59-1.89,17.34-6.31,17.34-16.65,0-7.66-6.58-14.65-26.37-14.65H583.63Z"/><path class="cls-1" d="M323,20.33c0-6.83-7.3-14.68-18.76-14.68-12.44,0-19,9.41-20.06,19.23h30.77c6.08,0,8.05-1.73,8.05-4.55M270.7,29c0-16.46,15.82-29,33.39-29,23.61,0,32,16.59,32,25.47,0,3.53-1.53,4.8-5,4.8h-46.9c1.25,14.68,13,22.38,26.66,22.38a59,59,0,0,0,22.82-4.76l2,4.87A72.3,72.3,0,0,1,304.94,59c-18.11,0-34.24-9.93-34.24-30"/><rect class="cls-2" x="45.14" y="79.96" width="9.58" height="22.09"/><rect class="cls-2" x="86.26" y="79.96" width="28.72" height="22.09"/><rect class="cls-2" x="121.18" y="79.96" width="47.87" height="22.09"/><rect class="cls-2" x="175.27" y="79.96" width="76.58" height="22.09"/><rect class="cls-2" x="258.07" y="79.96" width="124.48" height="22.09"/><rect class="cls-2" x="60.91" y="79.96" width="19.15" height="22.09"/><polygon class="cls-2" points="599.77 104.28 599.77 77.91 604.27 77.91 604.27 100.19 627.13 100.19 627.13 104.28 599.77 104.28"/><path class="cls-2" d="M408.82,81.75V89H426c1.25,0,3.09-.29,3.68-1a2.65,2.65,0,0,0,1.54-2.59,2.78,2.78,0,0,0-1.89-2.78c-0.69-.65-2.55-0.86-4-0.86h-16.5Zm0,11.06v7.67H427.3c2.34,0,4.49-.52,5.25-1.52a2.43,2.43,0,0,0,1.64-2.62,2.39,2.39,0,0,0-1.86-2.42c-0.75-.73-2.67-1.11-4.8-1.11H408.82Zm-4.39-14.9h22.49c4.05,0,6.32,1.36,7.58,3a6.16,6.16,0,0,1,1.3,4,6.27,6.27,0,0,1-1,3.32A4.22,4.22,0,0,1,432.25,90a7.91,7.91,0,0,1,6.18,5.81,7.71,7.71,0,0,1-.61,4.53c-1.18,2.4-4.05,3.5-8.76,3.9-0.19,0-2.69,0-2.91,0H404.44V77.91Z"/><path class="cls-2" d="M501.27,94l8.46-13.1L518.07,94h-16.8Zm23.35,10.26h5L512.39,77.91h-5.06l-17.49,26.37h4.82l4.14-6.42h21.71Z"/><path class="cls-2" d="M471.41,81.88H453.93v7.44h17.62c3.93,0,5.06-1.42,5.06-3.7,0-2.13-1.56-3.74-5.2-3.74m3.15,10.84,9.82,11.56h-5.23l-9.26-11H453.93v11h-4.46V77.91h21.4c7.4,0,10.16,3.2,10.16,7.42s-2.59,7-6.48,7.39"/><rect class="cls-2" x="581.82" y="77.92" width="4.57" height="26.37"/><path class="cls-2" d="M553.38,104.69c-12.7,0-17.52-3.05-18.13-8.81h4.85c0.27,2.85,3.6,4.92,13.37,4.92,9.49,0,12.18-1.76,12.18-4.25,0-3.11-6.16-3.53-12.81-4-8.08-.54-17-1.37-17-7.58,0-4.3,4.64-7.52,16-7.52,12.18,0,16.69,3.47,17.62,8.21h-5C564.12,83,560,81.32,552,81.32c-8.58,0-11.49,1.07-11.49,3.55,0,3.26,7,3.3,14.11,3.76,7.79,0.5,15.54,1.51,15.54,7.62,0,5.32-4.66,8.44-16.75,8.44"/></svg>