<svg id="Layer_1" data-name="Layer 1" xmlns="http://www.w3.org/2000/svg" viewBox="0 0 694.38 139.75"><defs><style>.cls-1{fill:#ee3c2e;}</style></defs><title>runrunit</title><path class="cls-1" d="M518.74,43.65c-9.46,0-20.94,9.16-27.81,18.31,2.9-13.13-2.6-17.77-9.31-17.77-5.65,0-9.64,2-15.29,4.12-0.46,17.4-3.73,31.48-6,46-0.46,2.91-.85,5.89-1.15,8.78-3.24,3-7.53,5.91-11.67,5.91-4.81,0-6.41-4.12-6.41-8.58,0-9.84,6.62-28.85,6.62-43,0-8.81-4.81-13.28-12.71-13.28a73.13,73.13,0,0,0-14.42,1.83c1.15,9.84-.64,27.43-3.62,38.64s-8,21.06-13.39,21.06c-4.12,0-5.89-2.63-5.89-6.53,0-6,6.09-31.89,6.09-43.34S395,44.34,391.15,44.34a33.8,33.8,0,0,0-15,3.59c2.59,12.36-4.74,41.74-4.74,53.53,0,0.49,0,1,0,1.5-4.1,3.87-9,7-12.84,7-4.43,0-5.16-3.05-5.16-6.87,0-9.6,6.74-27.54,6.74-38.37,0-4.43-1.79-9.16-5.92-11.45-6.46-3.59-19.42-5.65-27.36-7.44-0.15-7.67-2.61-15.22-11.4-15.22-9.84,0-14.47,9.84-14.47,19.12a19.53,19.53,0,0,0,7.56,15.45,158.31,158.31,0,0,1-6.26,20.91c-4.58,11.79-9.77,23.87-15.2,23.87-2.75,0-3.94-2-3.94-5.86,0-10.53,7.33-29.15,7.33-42.28s-7.33-18.16-16.79-18.16-21.12,9.16-28,18.31c2.9-13.13-2.6-17.77-9.31-17.77-5.65,0-9.64,2-15.29,4.12-0.46,17.4-3.73,31.48-6,46-0.42,2.66-.78,5.37-1.07,8-3.17,3-7.26,6.15-11.2,6.15-4.81,0-6.41-4.12-6.41-8.59,0-9.84,6-28.16,6-42.35,0-8.81-4.56-13.62-12.46-13.62a76.74,76.74,0,0,0-14.79,1.83c1.14,9.84-.64,28.16-3.62,39.38s-8.45,20.65-13.37,20.65c-3.78,0-5.63-2.61-5.63-7,0-6,6.09-32,6.09-43.43S150,43.88,146.11,43.88,137.27,45.25,132,48c1.37,12.36-5.82,41.67-5.82,53.46,0,0.71,0,1.44.06,2.18-4.75,6.92-11.17,10.84-17.51,10.84-11.1,0-20.16-17.09-21.75-39.07,20.24-3.82,37.87-17.78,37.87-39.3C124.86,18.32,106.52,0,73.32,0,33.26,0,0,22.12,0,49.82c0,9.77,5.1,18.71,13.8,18.71a16.27,16.27,0,0,0,13.58-6.72,23.1,23.1,0,0,1-2.93-13.13c0.49-9.32,8.5-18.52,19.13-23.46,0.09,16-2.38,28.45-6.37,47.12-4.35,20.37-10.06,38.76-10.06,53.26,0,6.18,2.89,13.55,10.21,13.55,7.78,0,14.59-4.55,19-9.59-1.14-8.93-1.3-20,1.45-36.94,1-6,2.28-12.25,3.66-18.38,2.54,26.9,14.36,65.48,36.8,65.48,13.68,0,25.39-10.7,32.43-19.81,3.19,5.72,8.18,10,15.35,10,10.87,0,20.81-8.52,26.19-19.16,2.29,9.5,6.94,18.36,17.47,18.36,10,0,17.83-5.87,23.31-11,0,1,0,1.92.07,2.63,0.29,4.27,1.22,7.48,6,8.85,3.42,1,13.95.76,20.21-2.29,0-16.33,2.54-33.49,6-42.12,3.92-9.92,10.38-17.28,14.35-17.28,2.9,0,4,2.14,4,5.65,0,4.12-5.83,23.23-5.83,35.44,0,10.84,6.65,21.21,21.3,21.21,20.28,0,27.34-14.44,34-30.07a199.14,199.14,0,0,0,9.88-30.6c6.45,1.45,9.58,2.25,9.58,7.78,0,7.67-4.59,18.62-4.59,31.67s6.95,21.21,20.45,21.21c9.85,0,19.08-6.78,25.82-13.47,2.83,7.28,8,13.2,16.5,13.2,12.12,0,21.53-9.09,26.91-19.73,2.29,9.5,6.25,19.62,16.78,19.62,10.36,0,18.35-5.93,23.86-11,0,0.75,0,1.41.07,2,0.29,4.27,1.22,7.48,6,8.85,3.42,1,13.95.76,20.2-2.29,0-16.33,2.54-33.49,6-42.12,3.92-9.92,10.2-17.28,14.16-17.28,2.9,0,4,2.14,4,5.65,0,10.41-7.65,39.25-6.5,53.91,0.39,5,4.55,12.06,13.09,12.06,6.26,0,12.76-4.43,17.65-9.77-2.75-4.12-3.59-10.49-3.59-15.22,0-14.19,6.18-39.57,6.18-52.69S528.2,43.65,518.74,43.65ZM64,63.33c1.66-7.15,3.19-13.84,4.12-19.45,1.62-9.79,2.06-16.7,1.65-23.43h0.73c16.25,0,26.37,6.5,26.37,18.64C96.88,55,81.14,63.12,64,63.33Z"/><circle class="cls-1" cx="599.16" cy="16.71" r="16.15"/><path class="cls-1" d="M690.6,43.07c-4.89,2-12.75,2.9-22.13,2.44l-7.19-.35a103,103,0,0,0,1.48-15.56c0-7.33-4.66-13.55-12.44-13.55a42.24,42.24,0,0,0-16.58,3.66c1.29,7.13,1.15,15.86.37,24.57H634c-6.64.11-10.56,0.48-13.28,3.55-2.37,2.67-2.68,8.81-1.42,12.59a104.8,104.8,0,0,1,12.89-.86c-0.52,3.34-1.07,6.52-1.6,9.41-2,11-3.58,21.42-4.3,29.39h0c-4.46,5.27-10.6,10.85-15.86,10.85-4.35,0-6.52-2.63-6.52-7.78,0-7.33,6.66-34.2,6.66-44.28,0-7.56-5.18-12.82-14-12.82a35.72,35.72,0,0,0-13.74,2.75c0.46,4.12.69,8.93-.46,18.54-1.17,9.79-4.62,29.62-4.62,42.45s6.36,22,19.64,22c11,0,21.75-7,29.53-14.62,2.58,10.09,10,17.35,23.69,17.35,16.19,0,32.87-14.8,32.87-29,0-6.56-4.32-10.68-11-8.17-2.29,11-7.78,19-13.82,19-5,0-7.36-3.82-7.36-11.14s2.53-21.21,5.13-33.73c0.59-2.85,1.23-5.85,1.86-8.9,11.1,1,19.27,1.49,24.56,1.49,6.26,0,10.41-3.93,11.37-10A9.78,9.78,0,0,0,690.6,43.07Z"/><circle class="cls-1" cx="554.03" cy="111.65" r="16.16"/></svg>