<?xml version="1.0" encoding="utf-8"?>
<!-- Generator: Adobe Illustrator 19.2.1, SVG Export Plug-In . SVG Version: 6.00 Build 0)  -->
<svg version="1.1" id="Camada_1" xmlns="http://www.w3.org/2000/svg" xmlns:xlink="http://www.w3.org/1999/xlink" x="0px" y="0px"
	 viewBox="0 0 400 370.8" style="enable-background:new 0 0 400 370.8;" xml:space="preserve">
<style type="text/css">
	.st0{fill:#EEC4A8;}
	.st1{fill:#C24159;}
	.st2{fill:#FBDFCA;}
	.st3{fill:#F0F2F1;}
	.st4{fill:#FBCBAA;}
	.st5{fill:#A5304D;}
	.st6{fill:#F48677;}
	.st7{fill:#873357;}
	.st8{fill:#F4DB89;}
	.st9{fill:#E0B124;}
	.st10{fill:#F79E61;}
	.st11{fill:#FFFFFF;}
	.st12{fill:#663054;}
	.st13{fill:#81C3B5;}
	.st14{fill:#502D50;}
	.st15{fill:#F3805C;}
	.st16{fill:#EFCE59;}
	.st17{fill:#868E9C;}
	.st18{fill:#A52F4E;}
	.st19{fill:#E14958;}
	.st20{filter:url(#Adobe_OpacityMaskFilter);}
	.st21{opacity:0.86;}
	.st22{mask:url(#SVGID_1_);enable-background:new    ;}
	.st23{clip-path:url(#SVGID_3_);}
	.st24{clip-path:url(#SVGID_5_);}
	.st25{fill:#E43125;}
	.st26{fill:#F6F7F7;}
	.st27{fill:#C5C3C2;}
	.st28{clip-path:url(#SVGID_7_);}
	.st29{clip-path:url(#SVGID_9_);}
	.st30{fill:#EFEEEE;}
	.st31{fill:#DDDDDD;}
	.st32{fill:#F3F3F3;}
	.st33{fill:#E2E2E2;}
</style>
<g id="_x23_5_2_">
	<g>
		<g>
			<path class="st12" d="M150.4,186.9c-34.7,12.7-63.4,93.9-35.4,90.6c11.3-1.3,21.1-11.7,47.2-11.7c-0.1,0.1-5.6-3.8-5.9-14.6
				C153.9,228.1,150.4,187,150.4,186.9z"/>
		</g>
		<g>
			<path class="st10" d="M200,268.8c10.5,0,20.7,7,20.7,17.5c0,10.5-10,32.2-20.5,32.2c-10.5,0-20.5-21.7-20.5-32.2
				C179.8,275.8,189.5,268.8,200,268.8z"/>
		</g>
		<g>
			<path class="st12" d="M250,186.9c34.4,12.8,62.8,94,35.1,90.7c-11.3-1.4-20.9-11.7-46.8-11.7c0.1,0.1,5.6-3.8,5.8-14.6
				C246.6,228.1,250.1,187,250,186.9z"/>
		</g>
		<g>
			<path class="st3" d="M198.8,52.3c7.2-0.2,54.1,57.6,54.1,128.7c0,44-5.1,67.3-6.5,73.7c-3.2,14.7-9.3,22.8-47.6,22.8
				c-38.2,0-41.8-8.4-44.7-22.4c-1.4-6.6-6.5-30.2-6.5-74.2C147.6,109.9,191.5,52.7,198.8,52.3z"/>
		</g>
		<g>
			<path class="st1" d="M200.3,110.8c14.5,0,26.3,11.8,26.3,26.3c0,14.5-11.8,26.3-26.3,26.3c-14.5,0-26.3-11.8-26.3-26.3
				C173.9,122.6,185.7,110.8,200.3,110.8z"/>
		</g>
		<g>
			<path class="st3" d="M200.3,119.6c9.7,0,17.5,7.9,17.5,17.5c0,9.7-7.8,17.5-17.5,17.5c-9.7,0-17.5-7.8-17.5-17.5
				C182.7,127.5,190.6,119.6,200.3,119.6z"/>
		</g>
		<g>
			<path class="st12" d="M200.1,186.9c7.3,0,14.8,13.5,14.8,40.9c0,27.5-7.5,58.5-14.8,58.5c-7.3,0-14.4-31-14.4-58.5
				C185.6,200.3,192.8,186.9,200.1,186.9z"/>
		</g>
		<g>
			<path class="st14" d="M200.3,186.9c7.3,0,14.6,13.5,14.6,40.9c0,27.5-7.4,58.5-14.6,58.5"/>
		</g>
	</g>
</g>
</svg>
