<?xml version="1.0" encoding="utf-8"?>
<!-- Generator: Adobe Illustrator 19.2.1, SVG Export Plug-In . SVG Version: 6.00 Build 0)  -->
<svg version="1.1" id="Camada_1" xmlns="http://www.w3.org/2000/svg" xmlns:xlink="http://www.w3.org/1999/xlink" x="0px" y="0px"
	 viewBox="0 0 400 370.8" style="enable-background:new 0 0 400 370.8;" xml:space="preserve">
<style type="text/css">
	.st0{fill:#EEC4A8;}
	.st1{fill:#C24159;}
	.st2{fill:#FBDFCA;}
	.st3{fill:#F0F2F1;}
	.st4{fill:#FBCBAA;}
	.st5{fill:#A5304D;}
	.st6{fill:#F48677;}
	.st7{fill:#873357;}
	.st8{fill:#F4DB89;}
	.st9{fill:#E0B124;}
	.st10{fill:#F79E61;}
	.st11{fill:#FFFFFF;}
	.st12{fill:#663054;}
	.st13{fill:#81C3B5;}
	.st14{fill:#502D50;}
	.st15{fill:#F3805C;}
	.st16{fill:#EFCE59;}
	.st17{fill:#868E9C;}
	.st18{fill:#A52F4E;}
	.st19{fill:#E14958;}
	.st20{filter:url(#Adobe_OpacityMaskFilter);}
	.st21{opacity:0.86;}
	.st22{mask:url(#SVGID_1_);enable-background:new    ;}
	.st23{clip-path:url(#SVGID_3_);}
	.st24{clip-path:url(#SVGID_5_);}
	.st25{fill:#E43125;}
	.st26{fill:#F6F7F7;}
	.st27{fill:#C5C3C2;}
	.st28{clip-path:url(#SVGID_7_);}
	.st29{clip-path:url(#SVGID_9_);}
	.st30{fill:#EFEEEE;}
	.st31{fill:#DDDDDD;}
	.st32{fill:#F3F3F3;}
	.st33{fill:#E2E2E2;}
</style>
<g id="_x23_2_2_">
	<g>
		<path class="st2" d="M231.4,262.8c3,2.9,4.4,6.5,4.4,11c0,8.6-7,12.7-15.5,12.7c-4.2,0-8-1.7-10.8-4.4l-45.8-24.5L55.4,214.5
			l19.1-100.9h127.1L309.5,209c3,2.8,5.9,6.7,5.9,11.2c0,8.6-7.8,15.5-16.4,15.5c-4.3,0-7.6-1.1-10.4-4c2.8,2.8,4.6,6.7,4.6,11
			c0,8.6-7,15.5-15.5,15.5c-3.9,0-7.5-1.4-10.2-3.8l-8.5-8.1c3,2.8,5,6.9,5,11.4c0,8.6-7,15.5-15.5,15.5c-4.1,0-7.8-1.6-10.5-4.1
			L231.4,262.8z"/>
	</g>
	<g>
		<polygon class="st3" points="70.1,243.2 41.2,228.7 41.2,98.8 113.3,113.2 		"/>
	</g>
	<g>
		<path class="st4" d="M344.1,127.6L211.4,98.8c-11.6-0.6-21.9,1.8-27.4,14.6L156.5,174c3.1,4,14.6,11.4,22.4,11.4s16-7.1,20.9-17.5
			l14.4-25.8h14.4l87.7,72.4h27.7V127.6z"/>
	</g>
	<g>
		<path class="st4" d="M177.5,233.9c0.4-1.5,0.7-3.1,0.7-4.7c0-8.3-6.2-14.9-13.9-14.9c-6.3,0-11.7,4.5-13.4,10.7l-8.2,27.7
			c-0.4,1.4-0.6,2.9-0.6,4.4c0,8.3,6.3,14.9,14,14.9c6.3,0,11.6-4.4,13.3-10.5L177.5,233.9z"/>
	</g>
	<g>
		<path class="st4" d="M148.6,219.5c0.5-1.5,0.7-3.1,0.7-4.7c0-8.3-6.2-15-13.9-15c-6.3,0-11.7,4.5-13.4,10.7l-8.2,27.7
			c-0.4,1.4-0.6,2.8-0.6,4.4c0,8.3,6.3,15,13.9,15c6.3,0,11.6-4.4,13.3-10.5L148.6,219.5z"/>
	</g>
	<g>
		<path class="st4" d="M119.7,208.7c0.5-1.7,0.8-3.6,0.8-5.6c0-9.8-6.8-17.7-15.1-17.7c-6.8,0-12.6,5.4-14.5,12.7L85,220.2
			c-0.4,1.7-0.7,3.4-0.7,5.2c0,9.8,6.8,17.7,15.1,17.7c6.8,0,12.5-5.2,14.4-12.5L119.7,208.7z"/>
	</g>
	<g>
		<path class="st4" d="M206.3,250.1c0.5-1.6,0.7-3.3,0.7-5.1c0-9-6.5-16.3-14.5-16.3c-6.6,0-12.1,4.9-13.9,11.6l-7.1,25.1
			c-0.4,1.5-0.6,3.1-0.6,4.8c0,9,6.5,16.3,14.5,16.3c6.5,0,12-4.8,13.9-11.4L206.3,250.1z"/>
	</g>
	<g>
		<polygon class="st3" points="329.8,228.4 358.7,228.4 358.7,98.8 286.5,109.4 		"/>
	</g>
	<g>
		<path class="st5" d="M345.2,257.6l11.2-5.8c10.4-5.3,16.9-16,16.9-27.7V114c0-15.4-14.1-26.9-29.1-23.9l-43.2,8.6L345.2,257.6z"/>
	</g>
	<g>
		<path class="st5" d="M54.7,257.6l-11.2-5.8c-10.4-5.3-16.9-16-16.9-27.7V114c0-15.4,14.1-26.9,29.1-23.9l43.2,8.6L54.7,257.6z"/>
	</g>
</g>
</svg>
