<?xml version="1.0" encoding="utf-8"?>
<!-- Generator: Adobe Illustrator 19.2.1, SVG Export Plug-In . SVG Version: 6.00 Build 0)  -->
<svg version="1.1" id="Camada_1" xmlns="http://www.w3.org/2000/svg" xmlns:xlink="http://www.w3.org/1999/xlink" x="0px" y="0px"
	 viewBox="0 0 400 370.8" style="enable-background:new 0 0 400 370.8;" xml:space="preserve">
<style type="text/css">
	.st0{fill:#EEC4A8;}
	.st1{fill:#C24159;}
	.st2{fill:#FBDFCA;}
	.st3{fill:#F0F2F1;}
	.st4{fill:#FBCBAA;}
	.st5{fill:#A5304D;}
	.st6{fill:#F48677;}
	.st7{fill:#873357;}
	.st8{fill:#F4DB89;}
	.st9{fill:#E0B124;}
	.st10{fill:#F79E61;}
	.st11{fill:#FFFFFF;}
	.st12{fill:#663054;}
	.st13{fill:#81C3B5;}
	.st14{fill:#502D50;}
	.st15{fill:#F3805C;}
	.st16{fill:#EFCE59;}
	.st17{fill:#868E9C;}
	.st18{fill:#A52F4E;}
	.st19{fill:#E14958;}
	.st20{filter:url(#Adobe_OpacityMaskFilter);}
	.st21{opacity:0.86;}
	.st22{mask:url(#SVGID_1_);enable-background:new    ;}
	.st23{clip-path:url(#SVGID_3_);}
	.st24{clip-path:url(#SVGID_5_);}
	.st25{fill:#E43125;}
	.st26{fill:#F6F7F7;}
	.st27{fill:#C5C3C2;}
	.st28{clip-path:url(#SVGID_7_);}
	.st29{clip-path:url(#SVGID_9_);}
	.st30{fill:#EFEEEE;}
	.st31{fill:#DDDDDD;}
	.st32{fill:#F3F3F3;}
	.st33{fill:#E2E2E2;}
</style>
<g id="_x23_8_2_">
	<g>
		<defs>
			<filter id="Adobe_OpacityMaskFilter" filterUnits="userSpaceOnUse" x="112.9" y="93.1" width="12" height="8">
				<feColorMatrix  type="matrix" values="1 0 0 0 0  0 1 0 0 0  0 0 1 0 0  0 0 0 1 0"/>
			</filter>
		</defs>
		<mask maskUnits="userSpaceOnUse" x="112.9" y="93.1" width="12" height="8" id="SVGID_1_">
			<g class="st20">
				<rect x="112.9" y="93.1" class="st21" width="12" height="8"/>
			</g>
		</mask>
		<g class="st22">
			<g>
				<defs>
					<rect id="SVGID_2_" x="112.9" y="93.1" width="12" height="8"/>
				</defs>
				<clipPath id="SVGID_3_">
					<use xlink:href="#SVGID_2_"  style="overflow:visible;"/>
				</clipPath>
				<g class="st23">
					<defs>
						<rect id="SVGID_4_" x="112.9" y="93.1" width="12" height="8"/>
					</defs>
					<clipPath id="SVGID_5_">
						<use xlink:href="#SVGID_4_"  style="overflow:visible;"/>
					</clipPath>
					<g class="st24">
						<polygon class="st25" points="124.4,99.8 115.6,98.7 121.4,94.7 						"/>
					</g>
				</g>
			</g>
		</g>
		<g>
			<path class="st1" d="M329.1,286.5c0,8.2-6.8,14.7-15.1,14.7H86.4c-8.4,0-15.6-6.5-15.6-14.7V125.2c0-8.2,7.2-15.2,15.6-15.2H314
				c8.4,0,15.1,6.9,15.1,15.2V286.5z"/>
		</g>
		<g>
			<rect x="81.8" y="98.6" class="st26" width="110.2" height="174.4"/>
		</g>
		<g>
			<path class="st27" d="M200.3,280.8c1-3.9,4.3-6.8,8.3-7.4V273H192v0.4C196,274,199.3,276.9,200.3,280.8z"/>
		</g>
		<g>
			<defs>
				<path id="SVGID_6_" d="M208.6,98.9v174.6c-4,0.5-7.3,3.5-8.3,7.4c-1-3.9-4.3-6.8-8.3-7.4V98.9c4.6,0.5,7.3,3.4,8.3,7.2
					C201.3,102.2,204.6,99.4,208.6,98.9z"/>
			</defs>
			<use xlink:href="#SVGID_6_"  style="overflow:visible;fill:#DDDDDD;"/>
			<clipPath id="SVGID_7_">
				<use xlink:href="#SVGID_6_"  style="overflow:visible;"/>
			</clipPath>
			<g class="st28">
				<g>
					<defs>
						<rect id="SVGID_8_" x="192" y="98.9" width="16.6" height="182"/>
					</defs>
					<clipPath id="SVGID_9_">
						<use xlink:href="#SVGID_8_"  style="overflow:visible;"/>
					</clipPath>
					<g class="st29">
						<defs>
							<rect id="SVGID_10_" x="192" y="98.9" width="16.6" height="182"/>
						</defs>
						<clipPath id="SVGID_11_">
							<use xlink:href="#SVGID_10_"  style="overflow:visible;"/>
						</clipPath>
						<g style="clip-path:url(#SVGID_11_);">
							
								<image style="overflow:visible;" width="70" height="759" xlink:href="5758EA2F66642DB9.jpg"  transform="matrix(0.24 0 0 0.24 191.9782 98.8613)">
							</image>
						</g>
					</g>
				</g>
			</g>
		</g>
		<g>
			<polygon class="st30" points="207.5,99.4 291.8,70.1 291.8,243.4 207.5,272.7 			"/>
		</g>
		<g>
			<rect x="81.8" y="273" class="st31" width="237" height="14.9"/>
		</g>
		<g>
			<rect x="81.8" y="98.6" class="st3" width="110.2" height="174.4"/>
		</g>
		<g>
			<rect x="208.6" y="98.6" class="st3" width="110.2" height="174.4"/>
		</g>
		<g>
			<polygon class="st32" points="209.7,98.7 209.1,99 209.1,98.7 			"/>
		</g>
		<g>
			<path class="st31" d="M318.8,98.6v12.6c-1.7-0.5-3.1-1.1-4.8-1.1h-22.2V98.6H318.8z"/>
		</g>
		<g>
			<polygon class="st33" points="207.5,99.1 291.8,69.6 291.8,243.7 207.5,273.1 			"/>
		</g>
		<g>
			<polygon class="st10" points="121.4,233.1 121.4,94.6 102.4,94.6 102.4,233.1 111.9,225.2 			"/>
		</g>
	</g>
</g>
</svg>
