<?xml version="1.0" encoding="utf-8"?>
<!-- Generator: Adobe Illustrator 19.2.1, SVG Export Plug-In . SVG Version: 6.00 Build 0)  -->
<svg version="1.1" id="Camada_1" xmlns="http://www.w3.org/2000/svg" xmlns:xlink="http://www.w3.org/1999/xlink" x="0px" y="0px"
	 viewBox="0 0 400 370.8" style="enable-background:new 0 0 400 370.8;" xml:space="preserve">
<style type="text/css">
	.st0{fill:#EEC4A8;}
	.st1{fill:#C24159;}
	.st2{fill:#FBDFCA;}
	.st3{fill:#F0F2F1;}
	.st4{fill:#FBCBAA;}
	.st5{fill:#A5304D;}
	.st6{fill:#F48677;}
	.st7{fill:#873357;}
	.st8{fill:#F4DB89;}
	.st9{fill:#E0B124;}
	.st10{fill:#F79E61;}
	.st11{fill:#FFFFFF;}
	.st12{fill:#663054;}
	.st13{fill:#81C3B5;}
	.st14{fill:#502D50;}
	.st15{fill:#F3805C;}
	.st16{fill:#EFCE59;}
	.st17{fill:#868E9C;}
	.st18{fill:#A52F4E;}
	.st19{fill:#E14958;}
	.st20{filter:url(#Adobe_OpacityMaskFilter);}
	.st21{opacity:0.86;}
	.st22{mask:url(#SVGID_1_);enable-background:new    ;}
	.st23{clip-path:url(#SVGID_3_);}
	.st24{clip-path:url(#SVGID_5_);}
	.st25{fill:#E43125;}
	.st26{fill:#F6F7F7;}
	.st27{fill:#C5C3C2;}
	.st28{clip-path:url(#SVGID_7_);}
	.st29{clip-path:url(#SVGID_9_);}
	.st30{fill:#EFEEEE;}
	.st31{fill:#DDDDDD;}
	.st32{fill:#F3F3F3;}
	.st33{fill:#E2E2E2;}
</style>
<g>
	<g>
		<path class="st0" d="M59.2,117c-10.2,0.4-22.4,7.6-23,21.8c0,0.3,0,0.7,0,1c0,0.6,0,1.2,0,2c0.2,5.3,1,14.3,1,14.3
			c-0.2,0-4.4-0.7-4.2,5.7c0.1,4.2,1.6,7.8,3,10.1c0,0.2,0,0.4,0,0.7c-0.7,0.8-1,1.8-1,2.9c0,0.8,0.2,1.5,0.6,2.2
			c-0.4,3.1-1.2,6.1-2.5,7.8c6.4,6.8,14.6,10.1,22.3,11.5c-0.1,1.3-0.2,2.5-0.4,3.9l-1.1-0.7l-5.4,3.4l0.5,0.6l-5.9,2.3
			c-0.1-0.4-0.2-0.7-0.3-1.1c-10.8,2.7-12,3.3-12,3.3l0.6,0.7c-0.8,0.2-1.5,0.4-2.4,0.6l0.1,0.1c-4.6,1.2-9.6,2.5-12.5,3.3
			c-6.8,1.8-8.3,19.6-8.3,31c12.3,5.5,33.7,9.1,56.5,9.1c22.9,0,45.1-3.6,57.5-9.1c0-11.3-1.5-29.2-8.3-31
			c-3.2-0.8-8.8-2.6-13.9-4.3l0.3-0.4c0,0,0-2.2-10.8-4.9c0,0-0.3,0.8-0.4,1.2l-7.1-1.9l-4.7-2.9l-0.9,0.6c-0.3-1.2-0.6-2.6-0.8-4.2
			c7.5-1.5,17.7-4.5,23-9.9c-2.2-2.9-3.3-6.6-3.8-9.8c0.1-0.4,0.2-0.9,0.2-1.3c0-0.8-0.2-1.5-0.6-2.2c0-0.4,0-0.8,0-1.2
			c1.5-2.3,2.9-6,3-10.3c0.1-4.5-1.9-5.5-3.2-5.7c0.6-10.6,0.2-10.7,0.8-16.4c0.4-4.5-8-25.6-24.1-18.9
			C68.4,118.1,64,116.8,59.2,117z"/>
	</g>
	<g>
		<path class="st0" d="M330.3,117c-10.5,0.4-23,7.9-23,22.8c0,1.1,0.1,2.7,0.1,4.4c0.3,5.2,0.9,11.9,0.9,11.9
			c-0.2,0-4.4-0.7-4.2,5.7c0.1,4.2,1.5,7.8,3,10.1c0,0.2,0,0.4,0,0.7c-0.7,0.8-1,1.8-1,2.9c0,0.8,0.2,1.5,0.6,2.2
			c-0.4,3.1-1.2,6.1-2.5,7.8c6.4,6.8,14.6,10.1,22.3,11.5c0,1.3-0.1,2.5-0.4,3.9l-1.1-0.7l-5.5,3.4l0.5,0.6l-5.9,2.2
			c-0.1-0.4-0.2-0.7-0.3-1.1c-10.8,2.7-12.1,3.3-12.1,3.3l0.6,0.7c-0.8,0.2-1.5,0.4-2.5,0.6l0.1,0.1c-4.6,1.2-9.6,2.5-12.5,3.2
			c-6.8,1.8-8.3,19.6-8.3,31c12.3,5.5,33.7,9.1,56.5,9.1c22.9,0,45.1-3.6,57.4-9.1c0-11.3-1.5-29.2-8.3-31
			c-3.2-0.8-8.8-2.6-13.9-4.3l0.3-0.4c0,0,0-2.2-10.8-4.9c0,0-0.3,0.8-0.4,1.2l-7.1-1.9l-4.7-2.9l-0.9,0.6c-0.3-1.2-0.6-2.6-0.8-4.2
			c7.5-1.5,17.7-4.5,23-9.9c-2.2-2.9-3.3-6.6-3.8-9.8c0.1-0.4,0.2-0.9,0.2-1.3c0-0.8-0.2-1.5-0.6-2.2c0-0.4,0-0.8,0-1.2
			c1.5-2.3,2.9-6,3.1-10.3c0.1-4.5-1.9-5.5-3.2-5.7c0.6-10.6,0.2-10.7,0.8-16.4c0.4-4.5-8-25.6-24-18.9
			C339.4,118.1,335.1,116.8,330.3,117z"/>
	</g>
	<g>
		<path class="st1" d="M193.5,102.1c-12.8,0.5-28,9.6-28,27.8c0,1.4,0.1,3.3,0.2,5.4c0.3,6.4,1.1,14.4,1.1,14.5
			c-0.3,0-5.4-0.8-5.1,7c0.2,5.1,1.9,9.5,3.6,12.3c0,0.3,0,0.5,0,0.8c-0.8,1-1.3,2.2-1.3,3.5c0,1,0.2,1.9,0.7,2.7
			c-0.5,3.7-1.4,7.5-3,9.5c7.8,8.3,17.8,12.2,27.2,14c-0.1,1.5-0.2,3.1-0.4,4.7l-1.3-0.8l-6.6,4.1l0.6,0.7L174,211
			c-0.1-0.5-0.2-0.8-0.4-1.3c-13.1,3.2-14.7,4-14.7,4l0.8,0.9c-1,0.3-1.9,0.5-3,0.8l0.1,0.1c-5.6,1.4-11.7,3-15.2,3.9
			c-8.3,2.2-10.1,23.9-10.1,37.7c15,6.7,41,11,68.8,11s55-4.4,70-11c0-13.8-1.8-35.5-10.1-37.7c-3.9-1-10.7-3.2-16.9-5.2l0.4-0.5
			c0,0,0-2.7-13.2-5.9c0,0-0.3,1-0.5,1.5l-8.7-2.3l-5.7-3.5l-1.1,0.7c-0.3-1.5-0.7-3.2-1-5.1c9.1-1.9,21.5-5.5,28-12.1
			c-2.7-3.5-4-8-4.6-11.9c0.2-0.5,0.2-1.1,0.2-1.6c0-1-0.2-1.9-0.7-2.7c0-0.5,0-1-0.1-1.5c1.8-2.8,3.5-7.3,3.7-12.5
			c0.2-5.5-2.3-6.7-3.9-7c0.7-13,0.3-13.1,0.9-20c0.5-5.4-9.7-31.2-29.3-23.1C204.6,103.4,199.3,101.9,193.5,102.1z"/>
	</g>
</g>
</svg>
