<?xml version="1.0" encoding="utf-8"?>
<!-- Generator: Adobe Illustrator 19.2.1, SVG Export Plug-In . SVG Version: 6.00 Build 0)  -->
<svg version="1.1" id="Camada_1" xmlns="http://www.w3.org/2000/svg" xmlns:xlink="http://www.w3.org/1999/xlink" x="0px" y="0px"
	 viewBox="0 0 400 370.8" style="enable-background:new 0 0 400 370.8;" xml:space="preserve">
<style type="text/css">
	.st0{fill:#EEC4A8;}
	.st1{fill:#C24159;}
	.st2{fill:#FBDFCA;}
	.st3{fill:#F0F2F1;}
	.st4{fill:#FBCBAA;}
	.st5{fill:#A5304D;}
	.st6{fill:#F48677;}
	.st7{fill:#873357;}
	.st8{fill:#F4DB89;}
	.st9{fill:#E0B124;}
	.st10{fill:#F79E61;}
	.st11{fill:#FFFFFF;}
	.st12{fill:#663054;}
	.st13{fill:#81C3B5;}
	.st14{fill:#502D50;}
	.st15{fill:#F3805C;}
	.st16{fill:#EFCE59;}
	.st17{fill:#868E9C;}
	.st18{fill:#A52F4E;}
	.st19{fill:#E14958;}
	.st20{filter:url(#Adobe_OpacityMaskFilter);}
	.st21{opacity:0.86;}
	.st22{mask:url(#SVGID_1_);enable-background:new    ;}
	.st23{clip-path:url(#SVGID_3_);}
	.st24{clip-path:url(#SVGID_5_);}
	.st25{fill:#E43125;}
	.st26{fill:#F6F7F7;}
	.st27{fill:#C5C3C2;}
	.st28{clip-path:url(#SVGID_7_);}
	.st29{clip-path:url(#SVGID_9_);}
	.st30{fill:#EFEEEE;}
	.st31{fill:#DDDDDD;}
	.st32{fill:#F3F3F3;}
	.st33{fill:#E2E2E2;}
</style>
<g id="_x23_4_2_">
	<g>
		<g>
			<path class="st12" d="M152.5,206.8l20.4,24.6l0.4,53.1c0,0,7.8,9.6,28.7,9.8c20.9,0.2,26.6-9.8,26.6-9.8l-0.1-53.1l46.7-54.8
				c0,0,44.9-43.4,39.9-65.9c-4.9-22.4-71.8-33.7-113.1-34.3c-41.3-0.6-113.7,16.1-117.5,34.3C80.8,129.1,152.5,206.8,152.5,206.8z"
				/>
		</g>
		<g>
			<path class="st13" d="M303.6,115.1c0,16.4-46.4,29.7-103.6,29.7c-57.2,0-103.6-13.3-103.6-29.7c0-16.4,46.4-29.8,103.6-29.8
				C257.2,85.3,303.6,98.6,303.6,115.1z"/>
		</g>
		<g>
			<path class="st14" d="M201.8,294.3c20.9,0.2,26.6-9.8,26.6-9.8l-0.1-53.1l46.7-54.8c0,0,44.9-43.4,39.9-65.9
				C310,88.3,243.1,77,201.8,76.4C201.6,227.6,202,250,201.8,294.3z"/>
		</g>
		<g>
			<path class="st3" d="M303.6,115.1c0,16.4-46.4,29.7-103.6,29.7c-57.2,0-103.6-13.3-103.6-29.7c0-16.4,46.4-29.8,103.6-29.8
				C257.2,85.3,303.6,98.6,303.6,115.1z"/>
		</g>
	</g>
</g>
</svg>
