<?xml version="1.0" encoding="utf-8"?>
<!-- Generator: Adobe Illustrator 19.2.0, SVG Export Plug-In . SVG Version: 6.00 Build 0)  -->
<svg version="1.1" id="Layer_1" xmlns="http://www.w3.org/2000/svg" xmlns:xlink="http://www.w3.org/1999/xlink" x="0px" y="0px"
	 viewBox="0 0 319 62.4" style="enable-background:new 0 0 319 62.4;" xml:space="preserve">
<style type="text/css">
	.st0{fill:#A3CC4A;}
	.st1{fill:#57BF03;}
	.st2{fill:#D11687;}
	.st3{fill:#A0A0A0;}
</style>
<g>
	<rect x="0.6" y="0.6" transform="matrix(0.995 0.1003 -0.1003 0.995 0.7419 -0.6709)" class="st0" width="12.9" height="12.9"/>
	
		<rect x="16.3" y="6.8" transform="matrix(0.9983 5.754486e-02 -5.754486e-02 0.9983 0.6976 -1.1934)" class="st1" width="9.5" height="9.5"/>
	
		<rect x="19.9" y="20.2" transform="matrix(0.9983 5.754486e-02 -5.754486e-02 0.9983 1.4785 -1.3798)" class="st0" width="9.5" height="9.5"/>
	<rect x="44.7" y="26.5" transform="matrix(0.995 0.1003 -0.1003 0.995 3.2654 -4.6893)" class="st0" width="7.2" height="7.2"/>
	<rect x="60.4" y="31" class="st1" width="6.4" height="6.4"/>
	<rect x="68.6" y="25.6" class="st0" width="9" height="9"/>
	<rect x="58.2" y="52.4" class="st1" width="7.3" height="8.3"/>
	<rect x="78.9" y="13.9" class="st1" width="7.2" height="7.2"/>
	
		<rect x="67" y="14.1" transform="matrix(0.9983 5.754486e-02 -5.754486e-02 0.9983 1.2004 -4.0943)" class="st1" width="9.5" height="9.5"/>
	
		<rect x="38.7" y="34.9" transform="matrix(0.9983 5.754486e-02 -5.754486e-02 0.9983 2.3159 -2.3958)" class="st1" width="8.2" height="8.2"/>
	
		<rect x="32.9" y="45.2" transform="matrix(0.9983 5.754486e-02 -5.754486e-02 0.9983 2.8991 -2.0484)" class="st0" width="8.2" height="8.2"/>
	
		<rect x="32.3" y="56.7" transform="matrix(0.9983 5.754486e-02 -5.754486e-02 0.9983 3.4811 -1.9213)" class="st0" width="5.6" height="5.6"/>
	
		<rect x="48.3" y="36.4" transform="matrix(0.9983 5.754486e-02 -5.754486e-02 0.9983 2.3908 -2.9237)" class="st1" width="7.3" height="7.3"/>
	
		<rect x="59.9" y="40.3" transform="matrix(0.9983 5.754486e-02 -5.754486e-02 0.9983 2.7257 -3.6689)" class="st1" width="10.3" height="10.3"/>
	
		<rect x="51.5" y="46.2" transform="matrix(0.9983 5.754486e-02 -5.754486e-02 0.9983 2.9136 -3.0476)" class="st1" width="5.8" height="5.8"/>
	
		<rect x="16" y="32.6" transform="matrix(0.9983 5.754486e-02 -5.754486e-02 0.9983 2.2899 -1.232)" class="st1" width="13.1" height="13.1"/>
	
		<rect x="19.6" y="48.6" transform="matrix(0.9983 5.754486e-02 -5.754486e-02 0.9983 3.128 -1.3323)" class="st1" width="10.1" height="10.1"/>
	<rect x="5.3" y="17.5" transform="matrix(0.995 0.1003 -0.1003 0.995 2.3768 -0.9819)" class="st1" width="11.2" height="11.2"/>
	<g>
		<g>
			<path class="st2" d="M89.6,44.9C89.6,44.9,89.5,44.9,89.6,44.9c-0.7,0-1.2-0.4-1.4-0.9l-5.3-13.3c-0.3-0.8,0.1-1.6,0.8-2
				c0.8-0.3,1.6,0.1,2,0.8l4.1,10.3l5-9.5c0.3-0.5,0.8-0.8,1.4-0.8c0.6,0,1.1,0.3,1.3,0.8l4.6,9.4l4.4-10.2c0.3-0.8,1.2-1.1,2-0.8
				c0.8,0.3,1.1,1.2,0.8,2L103.5,44c-0.2,0.5-0.8,0.9-1.3,0.9c-0.6,0-1.1-0.3-1.4-0.8L96,34.3l-5.1,9.8
				C90.7,44.6,90.2,44.9,89.6,44.9z"/>
		</g>
	</g>
	<g>
		<g>
			<path class="st2" d="M118.9,44.9h-4.3c-0.1,0-0.2,0-0.3,0c-1.5-0.3-4.3-1.9-4.7-5.6c-0.3-3.7,0-5.9,0-5.9
				c0.3-1.3,1.7-3.5,5.2-3.8c3.4-0.3,7.2,0,7.4,0c1.8,0,5.4,1,5.4,4.7v3.2c0,0.4-0.2,0.8-0.4,1.1c-0.3,0.3-0.7,0.4-1.1,0.4
				l-13.5-0.2c0,0.1,0,0.2,0,0.3c0.2,2.1,1.8,2.8,2.2,2.9h4.1c0.8,0,1.5,0.7,1.5,1.5S119.8,44.9,118.9,44.9z M112.5,35.7l12.1,0.2
				v-1.7c0-1.6-2.3-1.7-2.5-1.7c-0.1,0-3.9-0.3-7,0c-2.1,0.2-2.5,1.3-2.5,1.4C112.6,33.9,112.5,34.5,112.5,35.7z"/>
		</g>
	</g>
	<g>
		<g>
			<path class="st1" d="M158.1,44.9h-4.3c-0.1,0-0.2,0-0.3,0c-1.5-0.3-4.3-1.9-4.7-5.6c-0.3-3.7,0-5.9,0-5.9
				c0.3-1.3,1.7-3.5,5.2-3.8c3.4-0.3,7.2,0,7.4,0c1.8,0,5.4,1,5.4,4.7v3.2c0,0.4-0.2,0.8-0.4,1.1c-0.3,0.3-0.6,0.4-1.1,0.4
				l-13.5-0.2c0,0.1,0,0.2,0,0.3c0.2,2.1,1.8,2.8,2.2,2.9h4.1c0.8,0,1.5,0.7,1.5,1.5S158.9,44.9,158.1,44.9z M151.6,35.7l12.1,0.2
				v-1.7c0-1.6-2.3-1.7-2.5-1.7c-0.1,0-3.8-0.3-7,0c-2.1,0.2-2.5,1.3-2.5,1.4C151.7,33.9,151.6,34.5,151.6,35.7z"/>
		</g>
	</g>
	<g>
		<g>
			<path class="st1" d="M247.4,44.9h-4.3c-0.1,0-0.2,0-0.3,0c-1.5-0.3-4.3-1.9-4.7-5.6c-0.3-3.7,0-5.9,0-5.9
				c0.3-1.3,1.7-3.5,5.2-3.8c3.4-0.3,7.2,0,7.4,0c1.8,0,5.4,1,5.4,4.7v3.2c0,0.4-0.2,0.8-0.4,1.1c-0.3,0.3-0.6,0.4-1.1,0.4L241,38.7
				c0,0.1,0,0.2,0,0.3c0.2,2.1,1.7,2.7,2.2,2.9h4.1c0.8,0,1.5,0.7,1.5,1.5S248.2,44.9,247.4,44.9z M240.9,35.7l12.1,0.2v-1.7
				c0-1.6-2.3-1.7-2.5-1.7c-0.1,0-3.8-0.3-7,0c-2.1,0.2-2.5,1.3-2.5,1.4C241,33.9,241,34.5,240.9,35.7z"/>
		</g>
	</g>
	<g>
		<g>
			<path class="st2" d="M141.5,44.9c-0.1,0-0.1,0-0.2,0l-7.6,0c-2.6,0-4.5-3.5-4.8-4.2c-0.1-0.2-0.2-0.4-0.2-0.7V26.9
				c0-0.8,0.7-1.5,1.5-1.5s1.5,0.7,1.5,1.5v2.6h9.7c3.1,0,4.4,2.9,4.6,4.4c0,0.1,0,0.2,0,0.2v6c0,1.8-0.7,2.9-1.3,3.4
				C143.6,44.8,142,44.9,141.5,44.9z M131.8,39.7c0.7,1.2,1.6,2.2,2,2.2h7.7c0.3,0,0.9-0.1,1.3-0.4c0.3-0.3,0.4-0.7,0.4-1.3v-5.9
				c-0.1-0.4-0.5-1.8-1.7-1.8h-9.7V39.7z"/>
		</g>
	</g>
	<g>
		<g>
			<path class="st1" d="M245.9,29c-0.3,0-0.6-0.1-0.8-0.3c-0.5-0.4-0.6-1.2-0.1-1.8l4-4.7c0.4-0.5,1.2-0.6,1.8-0.1
				c0.5,0.4,0.6,1.2,0.1,1.8l-4,4.7C246.6,28.8,246.3,29,245.9,29z"/>
		</g>
	</g>
	<g>
		<g>
			<path class="st1" d="M168.8,44.9c-0.8,0-1.5-0.7-1.5-1.5s0.7-1.5,1.5-1.5h11.3c0.2,0,1.3-0.2,1.3-0.7c0-2.3-1-2.3-1.7-2.3h-6.3
				c-0.6,0-3.2,0.1-4.8-1.4c-0.9-0.8-1.4-2-1.4-3.3c0-1.7,0.4-2.9,1.3-3.7c1.2-1.2,2.8-1.1,3.9-1.1l0.4,0c1.7,0,3.1,0,3.1,0
				c0.8,0,1.5,0.7,1.5,1.5c0,0.8-0.7,1.5-1.5,1.5c0,0-1.4,0-3.1,0l-0.4,0c-0.7,0-1.5,0-1.7,0.3c-0.2,0.2-0.4,0.8-0.4,1.6
				c0,0.7,0.2,0.9,0.4,1.1c0.7,0.7,2.3,0.7,2.6,0.6c0,0,0.1,0,0.1,0h6.3c1.4,0,4.7,0.5,4.7,5.3c0,2.3-2.2,3.5-4.2,3.7L168.8,44.9z"
				/>
		</g>
	</g>
	<g>
		<g>
			<path class="st1" d="M198.3,44.9c-0.8,0-1.5-0.7-1.5-1.5v-9.2c0-0.1,0-0.2,0-0.3c0.3-1.7,1.7-4.5,4.5-4.5h2.3
				c0.8,0,1.5,0.7,1.5,1.5s-0.7,1.5-1.5,1.5h-2.3c-0.8,0-1.4,1.5-1.5,2v9C199.8,44.2,199.1,44.9,198.3,44.9z"/>
		</g>
	</g>
	<g>
		<g>
			<path class="st1" d="M187.9,44.9c-0.8,0-1.5-0.7-1.5-1.5V26.9c0-0.8,0.7-1.5,1.5-1.5s1.5,0.7,1.5,1.5v16.5
				C189.4,44.2,188.8,44.9,187.9,44.9z"/>
		</g>
	</g>
	<g>
		<g>
			<path class="st1" d="M277.8,44.9c-0.8,0-1.5-0.7-1.5-1.5V31c0-0.8,0.7-1.5,1.5-1.5s1.5,0.7,1.5,1.5v12.4
				C279.3,44.2,278.6,44.9,277.8,44.9z"/>
		</g>
	</g>
	<g>
		<g>
			<path class="st1" d="M193.8,32.1h-8.2c-0.7,0-1.2-0.6-1.2-1.3c0-0.7,0.6-1.2,1.2-1.2h8.2c0.7,0,1.2,0.6,1.2,1.2
				C195,31.6,194.5,32.1,193.8,32.1z"/>
		</g>
	</g>
	<g>
		<g>
			<g>
				<path class="st1" d="M229.8,44.9c-0.8,0-1.5-0.7-1.5-1.5V26.9c0-0.8,0.7-1.5,1.5-1.5s1.5,0.7,1.5,1.5v16.5
					C231.3,44.2,230.6,44.9,229.8,44.9z"/>
			</g>
			<g>
				<path class="st1" d="M235.6,32.4h-8.2c-0.8,0-1.5-0.7-1.5-1.5s0.7-1.5,1.5-1.5h8.2c0.8,0,1.5,0.7,1.5,1.5S236.4,32.4,235.6,32.4
					z"/>
			</g>
		</g>
	</g>
	<g>
		<g>
			<path class="st1" d="M219.8,45.6h-8.2c-2.2-0.1-5.3-1.6-5.3-5.3c0-3.5,0.4-6.6,5.2-6.6h10.4c-0.4-1.1-1.3-1.2-1.8-1.3l-3.8,0
				c-0.8,0-1.5-0.7-1.5-1.5c0-0.8,0.7-1.5,1.5-1.5c0,0,0,0,0,0l3.8,0c2,0.1,4.8,1.5,4.8,5.2v7.1c0,0.2,0,0.4-0.1,0.6
				C224.3,43.5,222.7,45.6,219.8,45.6z M211.4,36.7c-1.8,0-2.2,0-2.2,3.6c0,2,1.8,2.3,2.4,2.3l8.2,0c1.2,0,1.8-0.8,2.1-1.2v-4.7
				H211.4z M223.4,41.7L223.4,41.7L223.4,41.7z"/>
		</g>
	</g>
	<g>
		<g>
			<path class="st1" d="M313.9,45.6h-8.2c-2.2-0.1-5.3-1.6-5.3-5.3c0-3.5,0.4-6.6,5.2-6.6h10.4c-0.4-1.2-1.5-1.3-1.7-1.3l-3.8,0
				c-0.8,0-1.5-0.7-1.5-1.5c0-0.8,0.7-1.5,1.5-1.5c0,0,0,0,0,0l3.8,0c2,0.1,4.8,1.5,4.8,5.2v7.1c0,0.2,0,0.4-0.1,0.6
				C318.3,43.5,316.7,45.6,313.9,45.6z M305.5,36.7c-1.8,0-2.2,0-2.2,3.6c0,2,1.8,2.3,2.4,2.3l8.2,0c1.2,0,1.8-0.8,2.1-1.2v-4.7
				H305.5z M317.5,41.7L317.5,41.7L317.5,41.7z"/>
		</g>
	</g>
	<g>
		<g>
			<circle class="st1" cx="277.8" cy="26.7" r="1.5"/>
		</g>
	</g>
	<g>
		<g>
			<path class="st1" d="M267.5,50c-0.8,0-1.3-0.1-1.5-0.1c-0.8-0.1-1.4-0.9-1.3-1.7c0.1-0.8,0.9-1.4,1.7-1.3
				c0.8,0.1,3.2,0.2,4.3-0.8c0.2-0.1,0.3-0.3,0.4-0.5c-1.6,0-5.5,0.1-8.6,0.1c-2.1,0-3.2-0.8-3.9-1.5c-1.3-1.4-1.2-3.2-1.2-3.6v-5.8
				c0-1.5,0.5-2.8,1.4-3.8c1.5-1.5,3.6-1.6,3.9-1.6c0,0,0,0,0,0l0,0c0,0,3,0,6.7,0c2,0,3.2,0.8,3.8,1.5c1.2,1.3,1.2,3,1.1,3.4v9.8
				c0,1.8-0.6,3.2-1.8,4.3C271.2,49.7,269,50,267.5,50z M262.9,32.4c-0.7,0-2.3,0.3-2.3,2.3v5.9c0,0,0,0.1,0,0.1c0,0.2,0,1,0.5,1.4
				c0.3,0.3,0.9,0.5,1.6,0.5c3.3,0,7.7-0.1,8.9-0.1v-8.4c0,0,0-0.1,0-0.1v0c0,0,0-0.8-0.4-1.2c-0.3-0.3-0.8-0.5-1.5-0.5
				C265.9,32.4,262.9,32.4,262.9,32.4z"/>
		</g>
	</g>
	<g>
		<g>
			<path class="st1" d="M297.6,45.6h-11c-2,0-3.5-0.6-4.6-1.7c-1.3-1.4-1.3-3.1-1.3-3.3l0-6.1c0-3.7,3.3-5,5-5.2c0,0,0.1,0,0.1,0
				h11.7c0.8,0,1.5,0.7,1.5,1.5s-0.7,1.5-1.5,1.5H286c-0.5,0.1-2.2,0.4-2.2,2.2v6.2c0,0.1,0,0.7,0.5,1.1c0.5,0.5,1.3,0.7,2.4,0.7h11
				c0.8,0,1.5,0.7,1.5,1.5S298.4,45.6,297.6,45.6z"/>
		</g>
	</g>
	<g>
		<g>
			<path class="st3" d="M93,55.7c-0.1-1.1-0.1-2.5-0.1-3.5h0c-0.3,0.9-0.6,2-1,3.1l-1.4,3.9h-0.8l-1.3-3.8c-0.4-1.1-0.7-2.2-0.9-3.1
				h0c0,1-0.1,2.4-0.2,3.6L87,59.2h-1l0.6-8.1h1.3l1.4,3.9c0.3,1,0.6,1.9,0.8,2.7h0c0.2-0.8,0.5-1.7,0.9-2.7l1.4-3.9h1.3l0.5,8.1h-1
				L93,55.7z"/>
			<path class="st3" d="M98.9,56.7l-0.8,2.5H97l2.7-8.1h1.3l2.8,8.1h-1.1l-0.9-2.5H98.9z M101.6,55.9l-0.8-2.3
				c-0.2-0.5-0.3-1-0.4-1.5h0c-0.1,0.5-0.3,1-0.4,1.5l-0.8,2.3H101.6z"/>
			<path class="st3" d="M106.8,51.3c0.5-0.1,1.3-0.2,2-0.2c1.1,0,1.8,0.2,2.3,0.7c0.4,0.4,0.6,0.9,0.6,1.5c0,1.1-0.7,1.8-1.5,2.1v0
				c0.6,0.2,1,0.8,1.2,1.6c0.3,1.1,0.5,1.9,0.6,2.2H111c-0.1-0.2-0.3-0.9-0.5-1.9c-0.2-1.1-0.7-1.5-1.6-1.6h-1v3.5h-1V51.3z
				 M107.9,55h1.1c1.1,0,1.8-0.6,1.8-1.5c0-1-0.8-1.5-1.9-1.5c-0.5,0-0.9,0-1,0.1V55z"/>
			<path class="st3" d="M115.2,51.2h1v3.9h0c0.2-0.3,0.4-0.6,0.6-0.9l2.5-3h1.3l-2.9,3.4l3.2,4.7h-1.2l-2.7-4l-0.8,0.9v3.1h-1V51.2z
				"/>
			<path class="st3" d="M127.8,55.5h-3.1v2.9h3.5v0.9h-4.5v-8.1h4.4V52h-3.3v2.6h3.1V55.5z"/>
			<path class="st3" d="M133.1,52.1h-2.5v-0.9h6v0.9h-2.5v7.2h-1.1V52.1z"/>
			<path class="st3" d="M140.5,51.2v8.1h-1v-8.1H140.5z"/>
			<path class="st3" d="M144.2,59.2v-8.1h1.1l2.6,4.1c0.6,0.9,1.1,1.8,1.5,2.6l0,0c-0.1-1.1-0.1-2.1-0.1-3.3v-3.4h1v8.1h-1.1
				l-2.6-4.1c-0.6-0.9-1.1-1.8-1.5-2.7l0,0c0.1,1,0.1,2,0.1,3.3v3.5H144.2z"/>
			<path class="st3" d="M160.1,58.9c-0.5,0.2-1.4,0.4-2.5,0.4c-1.2,0-2.2-0.3-3-1.1c-0.7-0.7-1.1-1.8-1.1-3c0-2.4,1.7-4.2,4.4-4.2
				c0.9,0,1.7,0.2,2,0.4l-0.3,0.9c-0.4-0.2-1-0.3-1.8-0.3c-2,0-3.2,1.2-3.2,3.2c0,2.1,1.2,3.3,3.1,3.3c0.7,0,1.2-0.1,1.4-0.2v-2.4
				h-1.6V55h2.7V58.9z"/>
			<path class="st3" d="M167,51.3c0.6-0.1,1.4-0.2,2.2-0.2c1.5,0,2.6,0.3,3.3,1c0.7,0.7,1.1,1.6,1.1,2.9c0,1.3-0.4,2.4-1.2,3.1
				c-0.8,0.8-2,1.2-3.6,1.2c-0.7,0-1.4,0-1.9-0.1V51.3z M168.1,58.4c0.3,0,0.6,0.1,1.1,0.1c2.2,0,3.4-1.2,3.4-3.4
				c0-1.9-1.1-3.1-3.3-3.1c-0.5,0-0.9,0-1.2,0.1V58.4z"/>
			<path class="st3" d="M181,55.5h-3.1v2.9h3.5v0.9h-4.5v-8.1h4.4V52h-3.3v2.6h3.1V55.5z"/>
			<path class="st3" d="M193,59c-0.4,0.2-1.2,0.4-2.1,0.4c-2.3,0-4-1.4-4-4.1c0-2.5,1.7-4.2,4.2-4.2c1,0,1.6,0.2,1.9,0.4l-0.3,0.9
				c-0.4-0.2-1-0.3-1.6-0.3c-1.9,0-3.2,1.2-3.2,3.3c0,2,1.1,3.2,3.1,3.2c0.6,0,1.3-0.1,1.7-0.3L193,59z"/>
			<path class="st3" d="M202.9,55.1c0,2.8-1.7,4.3-3.8,4.3c-2.1,0-3.6-1.7-3.6-4.1c0-2.6,1.6-4.2,3.8-4.2
				C201.5,51,202.9,52.7,202.9,55.1z M196.7,55.3c0,1.7,0.9,3.3,2.6,3.3c1.7,0,2.6-1.5,2.6-3.4c0-1.6-0.8-3.3-2.6-3.3
				C197.5,51.9,196.7,53.5,196.7,55.3z"/>
			<path class="st3" d="M206.3,59.2v-8.1h1.1l2.6,4.1c0.6,0.9,1.1,1.8,1.5,2.6l0,0c-0.1-1.1-0.1-2.1-0.1-3.3v-3.4h1v8.1h-1.1
				l-2.6-4.1c-0.6-0.9-1.1-1.8-1.5-2.7l0,0c0.1,1,0.1,2,0.1,3.3v3.5H206.3z"/>
			<path class="st3" d="M217.7,52.1h-2.5v-0.9h6v0.9h-2.5v7.2h-1.1V52.1z"/>
			<path class="st3" d="M228.4,55.5h-3.1v2.9h3.5v0.9h-4.5v-8.1h4.4V52h-3.3v2.6h3.1V55.5z"/>
			<path class="st3" d="M233.1,51.2V56c0,1.8,0.8,2.6,1.9,2.6c1.2,0,2-0.8,2-2.6v-4.8h1.1v4.7c0,2.5-1.3,3.5-3.1,3.5
				c-1.7,0-2.9-0.9-2.9-3.5v-4.8H233.1z M236.8,49.3l-1.5,1.4h-0.9l1.1-1.4H236.8z"/>
			<path class="st3" d="M241.8,51.3c0.6-0.1,1.4-0.2,2.2-0.2c1.5,0,2.6,0.3,3.3,1c0.7,0.7,1.1,1.6,1.1,2.9c0,1.3-0.4,2.4-1.2,3.1
				c-0.8,0.8-2,1.2-3.6,1.2c-0.7,0-1.4,0-1.9-0.1V51.3z M242.9,58.4c0.3,0,0.6,0.1,1.1,0.1c2.2,0,3.4-1.2,3.4-3.4
				c0-1.9-1.1-3.1-3.3-3.1c-0.5,0-0.9,0-1.2,0.1V58.4z"/>
			<path class="st3" d="M258.8,55.1c0,2.8-1.7,4.3-3.8,4.3c-2.1,0-3.6-1.7-3.6-4.1c0-2.6,1.6-4.2,3.8-4.2
				C257.3,51,258.8,52.7,258.8,55.1z M252.5,55.3c0,1.7,0.9,3.3,2.6,3.3c1.7,0,2.6-1.5,2.6-3.4c0-1.6-0.8-3.3-2.6-3.3
				C253.3,51.9,252.5,53.5,252.5,55.3z"/>
		</g>
	</g>
</g>
</svg>
