<svg id="Layer_1" data-name="Layer 1" xmlns="http://www.w3.org/2000/svg" viewBox="0 0 274.62 76.17"><defs><style>.cls-1{fill:#373435;}.cls-2{fill:#3dbff1;}.cls-3{fill:#6ecdf4;}.cls-4{fill:#17b5f0;}.cls-5{fill:#fdfdfd;}</style></defs><title>logo_mkt_conteudo</title><path class="cls-1" d="M105.79,40.6c0.7-2,1.52-3.78,2.28-5.6,0.35-.85.72-1.69,1.06-2.54a0.41,0.41,0,0,1,.46-0.32,11.33,11.33,0,0,0,1.18,0,0.29,0.29,0,0,1,.35.33c0.15,2,.32,4.09.49,6.13,0.15,1.88.29,3.76,0.46,5.64,0,0.34,0,.43-0.37.41a2.85,2.85,0,0,1-1.24-.08,1.72,1.72,0,0,1-.18-1.21c-0.17-2.73-.54-5.45-0.54-8.2a0.53,0.53,0,0,0-.05-0.13C109,37.11,108,39,107.17,41l-0.14.32c-0.5,1.13-.5,1.13-1.73,1.09a0.41,0.41,0,0,1-.43-0.3c-1-2.35-2.12-4.64-3-7.18-0.05.82,0,1.52-.09,2.22q-0.29,3.53-.52,7.07c0,0.38-.14.49-0.49,0.45a2.94,2.94,0,0,0-.79,0c-0.49.08-.5-0.16-0.47-0.55,0.27-3.16.51-6.31,0.77-9.47,0.06-.74.14-1.47,0.18-2.21a0.25,0.25,0,0,1,.33-0.28h0a3.33,3.33,0,0,1,1.4.06,2.37,2.37,0,0,1,.6,1.24C103.82,35.8,104.87,38.11,105.79,40.6Z" transform="translate(-0.19 -0.41)"/><path class="cls-1" d="M205.89,44.86c-3.23,0-6.07-3.26-5.59-7.31,0.65-5.46,6.46-6.93,10.15-4.46,0.64,0.43.64,0.44,0.22,1.07s-0.44.67-1.13,0.24a5.29,5.29,0,0,0-3.56-.84,4.6,4.6,0,0,0-3.9,5.34,4.61,4.61,0,0,0,3.48,4.22,5.08,5.08,0,0,0,4.57-1.22c0.31-.26.44-0.22,0.61,0.09a2.05,2.05,0,0,0,.17.24c0.52,0.69.52,0.7-.16,1.22A7.4,7.4,0,0,1,205.89,44.86Z" transform="translate(-0.19 -0.41)"/><path class="cls-1" d="M135.57,44.64a5.36,5.36,0,0,1-1.9,0,3.38,3.38,0,0,1-1-1.45c-0.53-.81-1-1.63-1.55-2.45a1.76,1.76,0,0,0-1.39-.24,0.42,0.42,0,0,0-.06.37c0,1.15,0,2.3,0,3.45,0,0.29-.05.42-0.37,0.39a2.76,2.76,0,0,1-1.23-.08,1.78,1.78,0,0,1-.08-1.22c0-3.58,0-7.16,0-10.73,0-.38.09-0.53,0.48-0.48a2.19,2.19,0,0,1,1.14.08,1.74,1.74,0,0,1,.07,1.13c0,1.74,0,3.48,0,5.22,0,0.33.1,0.39,0.41,0.42a1.27,1.27,0,0,0,1.34-.65c0.53-.83,1.16-1.59,1.73-2.39a0.55,0.55,0,0,1,.52-0.27c0.5,0,1,0,1.6,0L133,38.62a2.51,2.51,0,0,0-.69,1,2.5,2.5,0,0,0,.63,1.07Z" transform="translate(-0.19 -0.41)"/><path class="cls-1" d="M224.39,37.26a3.7,3.7,0,0,1,3.74-1.76,2.54,2.54,0,0,1,2.45,2.5c0.17,2.13,0,4.26.07,6.39,0,0.24-.12.25-0.3,0.26-1.41.08-1.41,0.08-1.41-1.32s0-2.53,0-3.79c0-.2,0-0.39,0-0.59-0.06-1.59-.92-2.21-2.45-1.79a3.07,3.07,0,0,0-2.18,3.05c0,1.34,0,2.69,0,4,0,0.31-.06.45-0.4,0.41a5.9,5.9,0,0,0-.93,0c-0.26,0-.37,0-0.37-0.34q0-4.13,0-8.27c0-.27.05-0.38,0.35-0.36s0.82,0,1.23,0a6.64,6.64,0,0,1,.06,1.31C224.25,37.1,224.14,37.29,224.39,37.26Z" transform="translate(-0.19 -0.41)"/><path class="cls-1" d="M252.77,42.89a3.6,3.6,0,0,1-2.38,1.86c-2,.41-3.8-0.21-3.9-2.85-0.08-2,0-3.94,0-5.91a0.24,0.24,0,0,1,.26-0.3c1.43-.12,1.42-0.13,1.44,1.3,0,1.57-.09,3.15.05,4.72a1.56,1.56,0,0,0,2.11,1.54,3,3,0,0,0,2.34-2.71,41.06,41.06,0,0,0,.05-4.28c0-.43.08-0.59,0.55-0.57,1.16,0,1.16,0,1.16,1.18,0,2.44,0,4.89,0,7.33,0,0.36-.08.47-0.46,0.46-1.22,0-1.22,0-1.21-1.22C252.77,43.31,252.77,43.18,252.77,42.89Z" transform="translate(-0.19 -0.41)"/><path class="cls-1" d="M155.56,37.49a3.74,3.74,0,0,1,3.45-2,2.64,2.64,0,0,1,2.91,2.77c0.07,2,0,4.07,0,6.1,0,0.24-.08.29-0.31,0.3-1.38.06-1.38,0.07-1.38-1.29s0-2.82,0-4.23c0-1.9-1.27-2.65-3-1.77a3,3,0,0,0-1.64,2.72c0,1.38,0,2.76,0,4.13,0,0.33-.06.48-0.42,0.44a2.68,2.68,0,0,1-1.19-.08,1.75,1.75,0,0,1-.09-1.22c0-2.41,0-4.82,0-7.24,0-.33.06-0.45,0.42-0.45,1.23,0,1.23,0,1.21,1.22C155.56,37.06,155.56,37.22,155.56,37.49Z" transform="translate(-0.19 -0.41)"/><path class="cls-1" d="M145.4,39.62c0-.71,0-1.41,0-2.12,0-.21,0-0.32-0.29-0.33-0.92,0-.91-0.06-0.89-1a0.3,0.3,0,0,1,.36-0.37c0.87,0,.87,0,0.87-0.92,0-.44,0-0.89,0-1.33,0-.26.08-0.32,0.34-0.33,1.3,0,1.29,0,1.3,1.24a1.87,1.87,0,0,0,.09,1.27,2.31,2.31,0,0,0,1.24.08c0.81,0,.78,0,0.82.83,0,0.45-.11.58-0.56,0.56a2.19,2.19,0,0,0-1.51.09,2.44,2.44,0,0,0-.08,1.47c0,0.82,0,1.64,0,2.46a1.76,1.76,0,0,0,2,2c0.26,0,.36.07,0.33,0.33a1.93,1.93,0,0,0,0,.25c0,1.07,0,1.07-1.1.93a3,3,0,0,1-2.9-3.25C145.39,40.84,145.4,40.23,145.4,39.62Z" transform="translate(-0.19 -0.41)"/><path class="cls-1" d="M234.38,34.58a2,2,0,0,0,.09,1.16,2,2,0,0,0,1.19.07c0.86,0,.84,0,0.86.89,0,0.37-.07.53-0.47,0.49s-0.89,0-1.33,0a0.27,0.27,0,0,0-.34.33c0,1.26,0,2.53,0,3.79a1.7,1.7,0,0,0,1.95,1.88c0.29,0,.38.09,0.35,0.36a3.53,3.53,0,0,0,0,.39c0,0.84,0,.84-0.83.79a3,3,0,0,1-3.17-3.35c0-1.21,0-2.43,0-3.64,0-.41-0.06-0.61-0.52-0.55-0.2,0-.55.16-0.61-0.11a2,2,0,0,1,0-1.16c0.08-.19.39-0.1,0.59-0.08,0.48,0.06.63-.11,0.59-0.59s0-1.12,0-1.67c0-.26.07-0.33,0.33-0.33C234.38,33.19,234.38,33.18,234.38,34.58Z" transform="translate(-0.19 -0.41)"/><path class="cls-1" d="M124,37.64a3,3,0,0,1,2.72-2.05c0.31,0,.47.08,0.42,0.41a0.67,0.67,0,0,0,0,.1,2.91,2.91,0,0,1,0,1c-0.16.39-.6,0.1-0.91,0.18A3.05,3.05,0,0,0,124,40a37,37,0,0,0-.08,4c0,0.64,0,.64-0.65.64-1,0-1,0-1-1,0-2.49,0-5,0-7.47,0-.35.06-0.51,0.45-0.46s0.75,0,1.13,0a10.41,10.41,0,0,1,.06,1.63C123.88,37.43,123.76,37.62,124,37.64Z" transform="translate(-0.19 -0.41)"/><path class="cls-1" d="M152.12,40.19c0,1.36,0,2.72,0,4.08,0,0.3-.07.41-0.38,0.38a2.74,2.74,0,0,1-1.24-.08,1.76,1.76,0,0,1-.09-1.22c0-2.41,0-4.82,0-7.23,0-.34.07-0.47,0.43-0.44a2.33,2.33,0,0,1,1.19.08,1.75,1.75,0,0,1,.08,1.18C152.13,38,152.12,39.11,152.12,40.19Z" transform="translate(-0.19 -0.41)"/><path class="cls-1" d="M252.79,32.15l-1.6,2.13a0.41,0.41,0,0,1-.4.13h-1.12l1.22-2.14a0.25,0.25,0,0,1,.25-0.11h1.64Z" transform="translate(-0.19 -0.41)"/><path class="cls-1" d="M152.12,33.07c0,0.84,0,.84-0.85.84s-0.86,0-.86-0.88,0-.88.9-0.88S152.12,32.15,152.12,33.07Z" transform="translate(-0.19 -0.41)"/><path class="cls-2" d="M29.95,8.21h1.68a3.94,3.94,0,0,1,1.47.12,1.27,1.27,0,0,1-.85.14H20.77c-0.79,0-.8,0-0.8.79Q20,15,20,20.64a2.86,2.86,0,0,1-.05.83,0.35,0.35,0,0,1-.12.15,0.72,0.72,0,0,1-.09-0.56q0-6.08,0-12.16c0-.68,0-0.68.69-0.69h9.55Z" transform="translate(-0.19 -0.41)"/><path class="cls-1" d="M171.38,36.34c0-.65,0-0.65-0.65-0.65-1,0-1,0-1,1a3.81,3.81,0,0,0-5.86.35,5.77,5.77,0,0,0,.16,6c1.36,1.85,4.5,2,5.57.19a0.1,0.1,0,0,1,.06,0c0,0.49,0,1,0,1.46a2.11,2.11,0,0,1-1.68,2,4.74,4.74,0,0,1-2.62-.09,1.21,1.21,0,0,0-.93-0.24,2.75,2.75,0,0,0-.43.92c-0.13.24,0,.34,0.17,0.44a6.86,6.86,0,0,0,2.42.59c2.34,0.1,4.88-.91,4.8-4.44C171.34,41.4,171.38,38.87,171.38,36.34Zm-1.86,5.06A2.07,2.07,0,0,1,167.76,43a2.33,2.33,0,0,1-2.31-.88,4.08,4.08,0,0,1-.17-4.19,2.28,2.28,0,0,1,2.36-1,2.07,2.07,0,0,1,1.87,1.51,4.39,4.39,0,0,1,.21,1.44A5,5,0,0,1,169.53,41.4Z" transform="translate(-0.19 -0.41)"/><path class="cls-2" d="M30.83,21.41H21.08a4.15,4.15,0,0,1-1.29-.08v0a0.89,0.89,0,0,1,.65-0.16h12a0.86,0.86,0,0,1,.61.14,0.9,0.9,0,0,1-.74.11C31.85,21.42,31.34,21.41,30.83,21.41Z" transform="translate(-0.19 -0.41)"/><path class="cls-1" d="M185.57,33.38c0-1.24,0-1.22-1.25-1.24-0.37,0-.47.09-0.46,0.46,0,1.39,0,2.78,0,4.25a3.59,3.59,0,0,0-.71-0.74,3.17,3.17,0,0,0-.87-0.44,3.8,3.8,0,0,0-4.69,2.12,6,6,0,0,0-.37,3.61A3.79,3.79,0,0,0,180,44.72a3.38,3.38,0,0,0,4-1.48c0,0.16,0,.21,0,0.25,0,1.16,0,1.14,1.11,1.17,0.4,0,.52-0.09.51-0.51C185.56,40.57,185.57,37,185.57,33.38Zm-2.09,8.74a2.2,2.2,0,0,1-2.07,1.26,2.23,2.23,0,0,1-2.07-1.18,3.59,3.59,0,0,1-.48-1.93,3.7,3.7,0,0,1,.61-2.29,2.3,2.3,0,0,1,3.91.13A4.11,4.11,0,0,1,183.47,42.12Z" transform="translate(-0.19 -0.41)"/><path class="cls-1" d="M264,32.24a2.15,2.15,0,0,0-1.22-.09c-0.34,0-.4.11-0.4,0.41,0,1.4,0,2.79,0,4.31a3,3,0,0,0-1.69-1.25,3.78,3.78,0,0,0-4.48,2,5.85,5.85,0,0,0,0,5.23,3.63,3.63,0,0,0,4.34,1.93,3.31,3.31,0,0,0,1.93-1.52c0,0.2,0,.26,0,0.32,0,1.13,0,1.11,1.15,1.13,0.36,0,.46-0.08.46-0.45,0-3.6,0-7.19,0-10.79A2.18,2.18,0,0,0,264,32.24Zm-1.9,9.68A2.31,2.31,0,0,1,260,43.38,2.2,2.2,0,0,1,257.77,42a4.13,4.13,0,0,1,0-3.61,2.34,2.34,0,0,1,4.34.08,3.86,3.86,0,0,1,.33,1.77A3.78,3.78,0,0,1,262.11,41.92Z" transform="translate(-0.19 -0.41)"/><path class="cls-1" d="M216.67,35.49a4.69,4.69,0,1,0,4.78,4.68A4.64,4.64,0,0,0,216.67,35.49Zm0,7.89a3.08,3.08,0,0,1-3-3.28,3,3,0,1,1,6.09.1A3.08,3.08,0,0,1,216.63,43.38Z" transform="translate(-0.19 -0.41)"/><path class="cls-1" d="M270,35.49a4.69,4.69,0,1,0,0,9.37A4.69,4.69,0,1,0,270,35.49Zm0,7.89A3.21,3.21,0,0,1,270,37,3.21,3.21,0,0,1,270,43.38Z" transform="translate(-0.19 -0.41)"/><path class="cls-1" d="M138.44,35.75c-2.86.95-3.85,5-1.88,7.43a4.93,4.93,0,0,0,6.08,1.11c1.12-.56,1.13-0.61.51-1.66-0.12-.21-0.2-0.29-0.42-0.1a3.82,3.82,0,0,1-1.34.7,3,3,0,0,1-4-2.31c-0.07-.36,0-0.52.4-0.51,0.93,0,1.87,0,2.8,0h2.85c0.2,0,.38,0,0.4-0.27C144.07,36.67,141.55,34.72,138.44,35.75Zm3.35,3.38h-2.06c-0.67,0-1.34,0-2,0-0.26,0-.35,0-0.29-0.33A2.58,2.58,0,0,1,140.79,37a2.16,2.16,0,0,1,1.28,1.88C142.08,39.11,142,39.15,141.79,39.13Z" transform="translate(-0.19 -0.41)"/><path class="cls-1" d="M189.35,35.86a4.78,4.78,0,1,0,4.5,8.42c1.11-.56,1.12-0.61.48-1.66l0,0c-0.09-.22-0.2-0.19-0.36-0.06a4.1,4.1,0,0,1-1.39.72,3,3,0,0,1-4-2.35c0-.32,0-0.5.39-0.48,0.93,0,1.87,0,2.81,0s1.9,0,2.86,0A0.34,0.34,0,0,0,195,40C195.22,36.18,192.18,34.69,189.35,35.86Zm3.6,3.28h-2.07c-0.66,0-1.31,0-2,0-0.28,0-.37,0-0.29-0.34a2.57,2.57,0,0,1,3.1-1.89,2.14,2.14,0,0,1,1.54,1.95C193.28,39.13,193.16,39.14,193,39.13Z" transform="translate(-0.19 -0.41)"/><path class="cls-1" d="M239.33,40.41c1.62,0,3.25,0,4.87,0,1.25,0,1.25,0,1.16-1.28a3.72,3.72,0,0,0-2.87-3.55c-2.73-.58-5,1.11-5.35,4a4.65,4.65,0,0,0,2.35,4.72,5.28,5.28,0,0,0,5.52-.53c0.14-.12.23-0.21,0.12-0.41s-0.39-.67-0.59-1a5.09,5.09,0,0,1-1.57.86,3,3,0,0,1-4.07-2.33C238.83,40.47,238.95,40.4,239.33,40.41ZM239,38.79a2.58,2.58,0,0,1,3.11-1.88,2.14,2.14,0,0,1,1.54,2c0,0.29-.16.23-0.31,0.23h-2c-0.67,0-1.34,0-2,0C239,39.14,238.91,39.09,239,38.79Z" transform="translate(-0.19 -0.41)"/><path class="cls-1" d="M120.55,38.68a3,3,0,0,0-2.91-3.17,5.75,5.75,0,0,0-3.19.6c-0.72.36-.72,0.37-0.32,1.09a2.18,2.18,0,0,1,.14.26c0.11,0.27.22,0.34,0.5,0.15a3.9,3.9,0,0,1,1.44-.6c1.51-.33,2.45.24,2.65,1.54,0.07,0.43-.06.56-0.47,0.51a2.85,2.85,0,0,0-.54,0,7.28,7.28,0,0,0-3.45.84,2.65,2.65,0,0,0,.27,4.64c1.57,0.75,3.15.27,4.33-1.36,0,0.16,0,.22,0,0.29,0,1.27,0,1.26,1.28,1.19a0.25,0.25,0,0,0,.29-0.32C120.56,42.45,120.6,40.57,120.55,38.68Zm-1.72,2.49a3.16,3.16,0,0,1-.78,1.62,2,2,0,0,1-1.76.7,1.5,1.5,0,0,1-1.41-1.16,1.39,1.39,0,0,1,.89-1.58,6.26,6.26,0,0,1,2.25-.4C119,40.32,119,40.32,118.83,41.17Z" transform="translate(-0.19 -0.41)"/><path class="cls-3" d="M60.4,62.82q0-.73,0-1.47A2.64,2.64,0,0,1,60.4,62.82Z" transform="translate(-0.19 -0.41)"/><polygon class="cls-4" points="66.26 21.75 66.26 7.25 53.7 0 41.15 7.25 41.15 21.75 53.7 29 66.26 21.75"/><path class="cls-5" d="M59.93,7.7l-12.83,0c0,3.78,0,7.57,0,11.35,0,0.47.08,0.72,0.6,0.64h7.39a0.76,0.76,0,0,1,.65.11,18.94,18.94,0,0,0,2.6,2.38c0-.73,0-1.43,0-2.13a0.3,0.3,0,0,1,.36-0.37c0.57,0,1.14,0,1.71,0a0.72,0.72,0,0,0,0-.1q0-5.78,0-11.56C60.41,7.67,60.18,7.7,59.93,7.7Zm-1.61,9.39a0.39,0.39,0,0,1-.5.49c-0.79,0-2.36,0-2.36,0-0.66,0-5.29,0-5.86,0a0.3,0.3,0,0,1-.37-0.36c0-2.44,0-4.89,0-7.34h0a0.47,0.47,0,0,1,.46-0.09h8.11c0.37,0,.51.07,0.51,0.48Q58.29,13.68,58.32,17.09Z" transform="translate(-0.19 -0.41)"/><polygon class="cls-4" points="52.74 30.83 40.18 23.58 27.63 30.83 27.63 45.33 40.18 52.58 52.74 45.33 52.74 30.83"/><path class="cls-5" d="M46.71,43.53a14.63,14.63,0,0,1-2.06-2.15,2,2,0,0,1,.44-0.9l0,0a6.77,6.77,0,0,0,.61-4,7.12,7.12,0,0,0-2.31-4,9.59,9.59,0,0,0-2.23-1.2A9.25,9.25,0,0,0,38.71,31a8.22,8.22,0,0,0-3,1A7.24,7.24,0,0,0,33,35.31,8.05,8.05,0,0,0,32.66,38a8,8,0,0,0,.75,2.73l0.28,0.4a6.89,6.89,0,0,0,2.47,2.3,9,9,0,0,0,2.17.69A7.47,7.47,0,0,0,42,43.55c0.26-.11.47-0.47,0.8-0.13l2.16,2.2a0.39,0.39,0,0,0,.18,0l1.68-1.66C47,43.75,46.83,43.65,46.71,43.53Zm-4.94-2.33a4.07,4.07,0,0,1-3.05.78A4.42,4.42,0,0,1,35,39a4.49,4.49,0,0,1,3.31-5.81,3.31,3.31,0,0,1,.44,0h0a3.94,3.94,0,0,1,3,.7A4.45,4.45,0,0,1,41.77,41.21Z" transform="translate(-0.19 -0.41)"/><polygon class="cls-4" points="25.11 30.83 12.55 23.58 0 30.83 0 45.33 12.55 52.58 25.11 45.33 25.11 30.83"/><path class="cls-5" d="M19.7,32.8c0-.46-0.08-0.71-0.59-0.65H6.42a2.64,2.64,0,0,0,0,.34q0,6.29,0,12.58a0.34,0.34,0,0,0,.42.42c1.52,0,3,0,4.57,0,0.41,0,.83.08,0.9-0.52a0.68,0.68,0,0,1,.22-0.25,1,1,0,0,1,1.71.7c1.66,0,3.31,0,5,0,0.43,0,.55-0.1.55-0.54Q19.68,38.88,19.7,32.8ZM17.55,43c0,0.24,0,.36-0.32.35-0.65,0-7.84,0-8.46,0-0.24,0-.3-0.09-0.3-0.31q0-4.23,0-8.47a0.25,0.25,0,0,1,.3-0.32c0.62,0,7.81,0,8.46,0,0.28,0,.32.12,0.32,0.35Q17.54,38.85,17.55,43Z" transform="translate(-0.19 -0.41)"/><polygon class="cls-4" points="41.15 54.43 41.15 68.93 53.7 76.17 66.26 68.93 66.26 54.43 53.7 47.18 41.15 54.43"/><path class="cls-5" d="M60.24,61.31a7.17,7.17,0,0,0-2-4.11,8.66,8.66,0,0,0-2.76-1.6,9.92,9.92,0,0,0-2.55-.22,10.44,10.44,0,0,0-2.46.7,7.72,7.72,0,0,0-3,3.37,8.15,8.15,0,0,0-.49,2.79,9.14,9.14,0,0,0,.5,2.39,8.23,8.23,0,0,0,2.45,3,9.64,9.64,0,0,0,2.66,1,8.51,8.51,0,0,0,2.36,0,8.38,8.38,0,0,0,2.94-1.39,12.9,12.9,0,0,0,1.32-1.47,7.52,7.52,0,0,0,1.08-3A6.62,6.62,0,0,0,60.24,61.31Zm-3.15,3.16A3.9,3.9,0,0,1,55,66h0a3.52,3.52,0,0,1-2.38.11h0a4,4,0,0,1-2.92-2.39,2.83,2.83,0,0,1-.32-1.66A0.51,0.51,0,0,1,49.85,62C50.91,62,52,62,53,62c0.49,0,.6-0.15.58-0.61,0-1.06,0-2.13,0-3.19,0-.43.17-0.52,0.52-0.44A2.77,2.77,0,0,1,55,58,4.24,4.24,0,0,1,57.09,64.47Z" transform="translate(-0.19 -0.41)"/><polygon class="cls-4" points="67.43 23.58 54.87 30.83 54.87 45.33 67.43 52.58 79.98 45.33 79.98 30.83 67.43 23.58"/><path class="cls-5" d="M73.79,36.33a0.12,0.12,0,0,1,0,0q-1.23-1.14-2.36-2.36c-0.61-.6-1.23-1.21-1.85-1.8a1.25,1.25,0,0,0-.6-0.47H63.34c-0.48,0-1,0-1.43,0s-0.55.09-.55,0.54c0,4.25,0,8.5,0,12.75l12.94,0c0.38,0,.37-0.22.36-0.48,0-1.94,0-3.87,0-5.81A2.43,2.43,0,0,0,73.79,36.33ZM72.6,42.55a0.28,0.28,0,0,1-.35.33c-0.6,0-7.56,0-8.41,0-0.32,0-.38-0.13-0.38-0.41q0-4.13,0-8.27a0.34,0.34,0,0,1,.43-0.41c0.84,0,3.69,0,4.28,0h0c1,0,1,0,1,.93,0,0.66,0,1.31,0,2,0,0.41.08,0.62,0.53,0.57h0l2.6,0a0.28,0.28,0,0,1,.35.33Q72.59,40.08,72.6,42.55Z" transform="translate(-0.19 -0.41)"/><polygon class="cls-4" points="38.81 21.75 38.81 7.25 26.25 0 13.7 7.25 13.7 21.75 26.25 29 38.81 21.75"/><path class="cls-5" d="M32.85,8C28.63,8,24.41,8,20.2,8c-0.43,0-.42.21-0.42,0.51,0,3.28,0,11.81,0,12.8l13.29,0q0-6.63,0-13.26Zm-1.9,10.76c0,0.32-.06.46-0.42,0.46-2.77,0-5.55,0-8.32,0a0.28,0.28,0,0,1-.31-0.08h0c0-1.54,0-7.46,0-8.88,1.15,1.12,4,3.87,4.3,4.15s0.31,0.19.5,0c0.52-.54,3.36-3.27,4.26-4.13a0.45,0.45,0,0,1,0,.32C30.95,13.27,30.94,16,30.95,18.72Z" transform="translate(-0.19 -0.41)"/><polygon class="cls-4" points="13.7 54.43 13.7 68.93 26.25 76.17 38.81 68.93 38.81 54.43 26.25 47.18 13.7 54.43"/><path class="cls-5" d="M33.3,55.85a0.4,0.4,0,0,0-.5-0.49q-6.18,0-12.35,0c-0.41,0-.48.14-0.48,0.51Q20,61,20,66.06c0,0.41.14,0.49,0.51,0.48,1.2,0,2.39,0,3.59,0,0.09,0,.43-0.18.29,0.21l-1.08,1.9,0.36,0h6.11c0.27,0,.14-0.18.07-0.3l-1-1.68c-0.12-.35.18-0.18,0.26-0.18,1.21,0,2.43,0,3.64,0,0.4,0,.53-0.08.53-0.51Q33.27,60.95,33.3,55.85ZM31.16,64c0,0.3-.06.44-0.4,0.43H22.4a0.26,0.26,0,0,1-.3-0.09V57.56c0.09-.18.26-0.1,0.39-0.1h8.21c0.36,0,.48.08,0.47,0.46C31.15,59.94,31.15,62,31.16,64Z" transform="translate(-0.19 -0.41)"/></svg>