<?xml version="1.0" encoding="utf-8"?>
<!-- Generator: Adobe Illustrator 19.2.0, SVG Export Plug-In . SVG Version: 6.00 Build 0)  -->
<svg version="1.1" id="Layer_1" xmlns="http://www.w3.org/2000/svg" xmlns:xlink="http://www.w3.org/1999/xlink" x="0px" y="0px"
	 viewBox="0 0 500 110" style="enable-background:new 0 0 500 110;" xml:space="preserve">
<style type="text/css">
	.st0{fill:#525254;}
	.st1{fill:#231F20;}
	.st2{fill:#3B3B3C;}
</style>
<rect x="75.6" class="st0" width="15.5" height="16.3"/>
<rect x="346.5" class="st0" width="15.5" height="16.3"/>
<path class="st1" d="M41.4,22.1c-9.8,0-15.4,4.4-18.1,7.4c-0.3-2.6-2-6-8.7-6H0v15.2h6c1,0,1.3,0.3,1.3,1.3v69.6h17.4v-26
	c0-0.7,0-1.4,0-2c2.7,2.5,7.9,5.9,16,5.9c17,0,28.8-13.4,28.8-32.7C69.4,35.3,58.2,22.1,41.4,22.1 M37.9,72.5
	c-9.3,0-13.6-8.9-13.6-17.2c0-13.1,7.1-17.7,13.8-17.7c8.2,0,13.7,7.1,13.7,17.6C51.8,67.1,44.8,72.5,37.9,72.5"/>
<path class="st1" d="M92.3,69.7V32.8c0-6.2-3-9.3-9.2-9.3H67.6v15.2h6c1,0,1.3,0.3,1.3,1.3v36.8c0,6.3,2.9,9.3,9.1,9.3h15.5V71h-6
	C92.6,71,92.3,70.7,92.3,69.7"/>
<path class="st1" d="M137.6,22.1c-9.8,0-15.4,4.4-18.1,7.4c-0.3-2.6-2-6-8.7-6H96.2v15.2h6c1,0,1.3,0.3,1.3,1.3v69.6h17.4v-26
	c0-0.7,0-1.4,0-2c2.7,2.5,7.9,5.9,16,5.9c17,0,28.8-13.4,28.8-32.7C165.6,35.3,154.4,22.1,137.6,22.1 M134.1,72.5
	c-9.3,0-13.6-8.9-13.6-17.2c0-13.1,7.1-17.7,13.8-17.7c8.2,0,13.7,7.1,13.7,17.6C148,67.1,141,72.5,134.1,72.5"/>
<path class="st1" d="M197.6,22.1c-18.7,0-31.8,13.5-31.8,32.7c0,18.9,14.1,32.7,33.5,32.7c15.3,0,24.6-9.1,25-9.4l0.7-0.7l-7.6-12.5
	l-1.1,1.1c-0.1,0.1-6.9,6.4-16,6.4c-8.7,0-15.1-5.3-16.6-13.6H225l0.1-1.1c0-0.2,0.4-3.9,0.4-5.7C225.5,34.1,214.3,22.1,197.6,22.1
	 M184.5,45.8c1.9-6.1,6.6-9.6,13.1-9.6c5.2,0,9.3,4,10,9.6C207.6,45.8,184.5,45.8,184.5,45.8z"/>
<path class="st1" d="M288.6,69.7V9.3c0-6.2-3-9.3-9.3-9.3h-15.5v15.2h6c1,0,1.3,0.3,1.3,1.3v10.9c-2.6-2.3-7.6-5.4-16.2-5.4
	c-16.8,0-28.6,13.5-28.6,32.7c0,19.6,11.3,32.7,28,32.7c9.6,0,15.1-4.4,17.8-7.5c0.4,2.7,2.1,6.1,8.6,6.1h15V71h-5.8
	C289,71,288.6,70.7,288.6,69.7 M257.7,72.5c-8.3,0-13.6-6.9-13.6-17.6c0-10.4,5.6-17.4,13.8-17.4c9.4,0,13.6,8.6,13.6,17.2
	C271.5,67.8,264.3,72.5,257.7,72.5"/>
<path class="st1" d="M334.5,22.7c-7.2,0-13.9,4.2-17.8,10.8v-1.4c0-5.7-3.1-8.6-9.3-8.6h-14.9v15.2h6c1,0,1.3,0.3,1.3,1.3v46h17.4
	V61c0-3.3,0.4-6.5,1.2-9.4c2.6-8.6,9.6-11.7,15.2-11.7c2,0,3.4,0.2,3.5,0.2l1.5,0.2V23.2l-1.1-0.2C337.4,23,335.9,22.7,334.5,22.7"
	/>
<path class="st1" d="M363.2,69.7V32.8c0-6.2-3-9.3-9.1-9.3h-14v15.2h4.5c1,0,1.3,0.3,1.3,1.3v36.8c0,6.3,2.9,9.3,9.2,9.3h15.5V71h-6
	C363.5,71,363.2,70.7,363.2,69.7"/>
<path class="st1" d="M428.4,38.8V23.6h-9.3c-5.4,0-8.3,1.9-10,6.5l-11.3,31.6c-0.4,1.2-0.8,2.5-1.1,3.7c-0.3-1.3-0.7-2.6-1.1-3.8
	L384.3,30c-1.7-4.7-4.5-6.5-10-6.5h-9.8v15.2h2.6c1.4,0,1.8,0.5,2.1,1.3l17.5,46h19.5l17.5-46c0.3-0.8,0.8-1.3,2.1-1.3L428.4,38.8
	L428.4,38.8z"/>
<path class="st1" d="M484.2,57.6c0-0.2,0.4-3.9,0.4-5.7c0-17.8-11.2-29.8-27.9-29.8c-18.7,0-31.8,13.5-31.8,32.7
	c0,18.9,14.1,32.7,33.5,32.7c15.3,0,24.6-9.1,25-9.4l0.7-0.7l-7.5-12.5l-1.1,1.1c-0.1,0.1-7,6.4-16,6.4c-8.7,0-15.1-5.3-16.6-13.6
	h41.2L484.2,57.6z M443.5,45.8c1.9-6.1,6.6-9.6,13.1-9.6c5.2,0,9.2,4,10,9.6C466.6,45.8,443.5,45.8,443.5,45.8z"/>
<path class="st2" d="M334.5,22.7c-5.6,0-10.8,2.5-14.8,6.8c3.3,0,6.6-0.1,10-0.1c2.9,0,5.8,0,8.7,0v-6.3l-1.1-0.2
	C337.4,23,335.9,22.7,334.5,22.7"/>
<path class="st2" d="M409.1,30l-0.7,2c6.7,0.5,13.4,1,20,1.5v-10h-9.3C413.7,23.6,410.8,25.4,409.1,30"/>
<path class="st2" d="M41.4,22.1c-9.8,0-15.4,4.4-18.1,7.4c-0.3-2.6-2-6-8.7-6H0v15.2h6c1,0,1.3,0.3,1.3,1.3v38.8
	c8-2.8,16.1-5.4,24.5-8c-5.1-2.9-7.5-9.5-7.5-15.7c0-13.1,7.1-17.7,13.8-17.7c8.2,0,13.7,7.1,13.7,17.6c0,4.4-1,7.9-2.5,10.6
	c6.5-1.8,13.1-3.6,19.7-5.3c0.2-1.8,0.4-3.6,0.4-5.5C69.4,35.3,58.2,22.1,41.4,22.1"/>
<path class="st2" d="M83.1,23.6H67.6v15.2h6c1,0,1.3,0.3,1.3,1.3v18.8c5.7-1.4,11.5-2.8,17.4-4.1v-22C92.3,26.6,89.3,23.6,83.1,23.6
	"/>
<rect x="75.6" class="st2" width="15.5" height="16.3"/>
<path class="st2" d="M137.6,22.1c-9.8,0-15.4,4.4-18.1,7.4c-0.3-2.6-2-6-8.7-6H96.2v15.2h6c1,0,1.3,0.3,1.3,1.3v12.2
	c5.9-1.2,11.8-2.5,17.8-3.6c2-8.1,7.6-11.2,13-11.2c4.9,0,8.8,2.5,11.2,6.8c6-1,12-2,18.1-2.9C159.6,29.5,150.2,22.1,137.6,22.1"/>
<path class="st2" d="M197.6,22.1c-13.7,0-24.3,7.2-29,18.6c7.4-1.1,14.8-2.1,22.3-3c1.9-1,4.2-1.5,6.7-1.5c1,0,1.8,0.2,2.7,0.4
	c6.8-0.8,13.7-1.5,20.6-2.1C216.2,26.8,208,22.1,197.6,22.1"/>
<path class="st2" d="M279.3,0h-15.5v15.2h6c1,0,1.3,0.3,1.3,1.3v10.9c-2.6-2.3-7.6-5.4-16.2-5.4c-9.4,0-17.3,4.2-22.3,11.3
	c18.3-1.5,37-2.7,56-3.3V9.3C288.6,3,285.6,0,279.3,0"/>
<path class="st2" d="M307.4,23.6h-14.9V30c7.9-0.3,15.9-0.4,23.9-0.5C315.5,25.6,312.5,23.6,307.4,23.6"/>
<rect x="346.5" class="st2" width="15.5" height="16.3"/>
<path class="st2" d="M354,23.6h-14v5.9c7.7,0.1,15.3,0.2,22.9,0.4C362,25.7,359.1,23.6,354,23.6"/>
<path class="st2" d="M374.2,23.6h-9.8V30c6.7,0.2,13.4,0.4,20.1,0.7l-0.2-0.7C382.5,25.4,379.7,23.6,374.2,23.6"/>
<path class="st2" d="M456.6,22.1c-10.7,0-19.5,4.4-25.1,11.7c8.2,0.7,16.3,1.5,24.3,2.4c1.2,0.1,2.4,0.3,3.7,0.4
	c7.7,0.9,15.4,1.8,23,2.9C478.4,28.8,469.1,22.1,456.6,22.1"/>
<polygon class="st2" points="484.5,23.6 486.8,23.6 486.8,29.8 488.5,29.8 488.5,23.6 490.8,23.6 490.8,22.1 484.5,22.1 "/>
<polygon class="st2" points="497.6,22.1 495.9,27.4 495.9,27.4 494.1,22.1 491.7,22.1 491.7,29.8 493.3,29.8 493.3,24.4 493.3,24.4 
	495.2,29.8 496.5,29.8 498.4,24.4 498.4,24.4 498.4,29.8 500,29.8 500,22.1 "/>
</svg>
