<svg id="Layer_1" data-name="Layer 1" xmlns="http://www.w3.org/2000/svg" viewBox="0 0 688.28 650.79"><defs><style>.cls-1{fill:#ff6e00;}</style></defs><title>soap</title><path d="M15.59,633.7c-3.48-.52-6.43-1.28-6.43-4s2.57-4.23,6.13-4.23a7.88,7.88,0,0,1,6.55,3.12L25,626.31c-2.23-3.75-6.05-4.71-9.88-4.71-4.77,0-10.25,2.24-10.22,8,0,6,5,7.39,10.25,8.15,3.71,0.52,6.77,1.56,6.77,4.59,0,3.52-3.52,4.63-6.7,4.63A9,9,0,0,1,7,642.41l-3.18,2.24c2.42,4.71,6.32,6.35,11.39,6.35,5.52,0,10.93-2.36,11-8.63S21,634.5,15.59,633.7M49.94,622.4H28.3v4H37v23.93h4.28V626.43h8.66v-4Zm10.48,0-11.88,28H53l2.5-5.87H69.88l2.54,5.87h4.5L65,622.4H60.42Zm-3.29,18,5.6-13.3,5.6,13.3H57.13Zm18.39-14h8.7v23.93h4.27V626.43h8.67v-4H75.52v4Zm29.85,12H120V634.3h-14.6v-7.55h15.21V622.4H101.13v28h19.56V646H105.37v-7.51Zm42.19-16.58c-8,0-13.62,6.15-13.62,14.66,0,7.35,4.35,14.42,13.54,14.42S161,644,161,636.5,156.6,621.92,147.55,621.88Zm-0.08,25c-6.54,0-9.27-5.31-9.35-10.26,0-6.11,3.29-10.63,9.42-10.63,6.47,0.12,9.27,5.47,9.27,10.63C156.82,641.93,154.06,646.84,147.48,646.84Zm18.58,3.52h4.24v-10.9h13.77V635.3H170.29v-8.51h14.49v-4.35H166.05v27.92Zm28.64-23.93h8.7v23.93h4.28V626.43h8.66v-4H194.69v4Zm43.85,8.15h-14V622.4h-4.24v28h4.24V638.74h14v11.62h4.2v-28h-4.2v12.18Zm15.1,3.87h14.6V634.3h-14.6v-7.55h15.21V622.4H249.4v28H269V646H253.64v-7.51Zm37.91-16.06-11.88,28h4.5l2.5-5.87H301l2.54,5.87H308l-11.88-28h-4.62Zm-3.29,18,5.6-13.3,5.6,13.3h-11.2Zm37.95-.16c5.22-.8,7.19-4.71,7.19-8.71,0-4.71-3.22-9.15-9.35-9.15-4.12,0-8.21,0-12.33,0v28H316v-9.67h5.6l8.06,9.67h5l-0.45-.8ZM316,636.62V626.47H324a4.86,4.86,0,0,1,5,5.15,4.69,4.69,0,0,1-5.07,5H316Zm19.9-10.19h8.7v23.93h4.27V626.43h8.66v-4H335.86v4Zm46.23-4.08c-4,0-8.21,0-12.26,0v28h4.24v-8.59h8C394.76,641.69,394.73,622.36,382.09,622.36Zm0,15.3h-8V626.47h8C389,626.47,389.09,637.66,382.09,637.66Zm28.38,2.6c5.22-.8,7.19-4.71,7.19-8.71,0-4.71-3.22-9.15-9.35-9.15-4.12,0-8.21,0-12.33,0v28h4.24v-9.67h5.6l8.06,9.67h5l-0.45-.8Zm-10.25-3.64V626.47h8.1a4.85,4.85,0,0,1,5,5.15,4.69,4.69,0,0,1-5.07,5h-8.06Zm27.28,1.84h14.6V634.3h-14.6v-7.55H442.7V622.4H423.25v28h19.56V646H427.49v-7.51Zm30.34-4.75c-3.48-.52-6.43-1.28-6.43-4s2.57-4.23,6.13-4.23a7.89,7.89,0,0,1,6.55,3.12l3.22-2.28c-2.23-3.75-6.05-4.71-9.87-4.71-4.77,0-10.25,2.24-10.22,8,0,6,5,7.39,10.25,8.15,3.71,0.52,6.77,1.56,6.77,4.59,0,3.52-3.52,4.63-6.7,4.63a9,9,0,0,1-8.25-4.59l-3.18,2.24c2.42,4.71,6.32,6.35,11.39,6.35,5.52,0,10.93-2.36,11-8.63S463.28,634.5,457.83,633.7Zm19.64,4.75h14.6V634.3h-14.6v-7.55h15.21V622.4H473.23v28h19.56V646H477.47v-7.51Zm39,3.84-15-19.89h-3.25v28h4.28V630.63l15,19.73h3.22v-28h-4.24v19.89Zm29.85-19.89H524.72v4h8.7v23.93h4.27V626.43h8.67v-4Zm10.48,0-11.88,28h4.5l2.5-5.87H566.3l2.53,5.87h4.5l-11.88-28h-4.62Zm-3.29,18,5.6-13.3,5.6,13.3h-11.2Zm18.39-14h8.7v23.93h4.28V626.43h8.66v-4H571.94v4Zm25.61,23.93h4.2v-28h-4.2v28Zm22.85-28.48c-8,0-13.62,6.15-13.62,14.66,0,7.35,4.35,14.42,13.54,14.42s13.54-6.91,13.54-14.46S629.45,621.92,620.41,621.88Zm-0.08,25c-6.55,0-9.27-5.31-9.34-10.26,0-6.11,3.29-10.63,9.42-10.63,6.47,0.12,9.27,5.47,9.27,10.63C629.68,641.93,626.91,646.84,620.33,646.84Zm36.85-4.55-15-19.89h-3.25v28h4.28V630.63l15,19.73h3.22v-28h-4.24v19.89Zm20.47-8.59c-3.48-.52-6.43-1.28-6.43-4s2.57-4.23,6.13-4.23a7.89,7.89,0,0,1,6.55,3.12l3.22-2.28c-2.23-3.75-6.05-4.71-9.87-4.71-4.77,0-10.25,2.24-10.21,8,0,6,5,7.39,10.25,8.15,3.71,0.52,6.77,1.56,6.77,4.59,0,3.52-3.52,4.63-6.7,4.63a9,9,0,0,1-8.25-4.59l-3.18,2.24c2.42,4.71,6.32,6.35,11.39,6.35,5.52,0,10.93-2.36,11-8.63S683.1,634.5,677.65,633.7Z" transform="translate(0 -0.21)"/><path d="M114.81,485.41c-8.31-2.6-25.2-6.31-46.21-12.42-10.33-3-17.28-6.4-21.66-10.38a16,16,0,0,1-6.4-12.77c0-5.95,3.28-12.56,8.15-15.34,6.91-4.51,17.82-7.1,31.12-7.1,26.24,0,53.21,18,53.21,18s10.8-22.28,15.4-31.75c-39-27-74.93-23-88.21-21C45.86,394.8,6.87,403.36,4,446.76c-3.35,49.87,54.57,60.77,54.57,60.77s19.53,5.3,42.28,11.25c4,1.05,7,1.93,9.93,3A16,16,0,0,1,122,539c-0.15,5.84-3.89,19.91-36.57,19.6-45.2,0-70-22.09-70-22.09S9,549.89,0,569.61c12,7.3,39.4,24.85,86.81,24.85,52.52,0,64.21-26.23,68.61-41.41,0.15-.73.22-1.42,0.34-2.14a120.8,120.8,0,0,1-14.2-51.71c-1.1-1.15-7-7.62-26.74-13.79M577.17,593V510.31l58.84,0a52.46,52.46,0,0,0,51.61-47.62l0.21-19.62A52.52,52.52,0,0,0,636,391.22l-92.46,0V554l-64.44-148.8s-4.77-14-19.61-14H446.89c-14.84,0-19.61,14-19.61,14l-36.49,84.2c0,0.89.07,1.78,0.07,2.68a124.4,124.4,0,0,1-41.38,92.77L346,593H382.6l21.23-49h98.74l21.23,49M418.38,510.31l34.81-80.44L488,510.31H418.38Zm235.4-51.85c0,10.06-10.48,18.22-20.53,18.22H577.17V424.83h56.08c10.06,0,20.53,8.15,20.53,18.22v15.41Z" transform="translate(0 -0.21)"/><path class="cls-1" d="M266.16,367.17A124.16,124.16,0,0,1,324,381.36L360.75,0.21l-205,55,46.58,329.59a124.13,124.13,0,0,1,63.87-17.58m0,24A100.89,100.89,0,1,0,367,492.09,100.88,100.88,0,0,0,266.17,391.2Zm0,155.54a54.65,54.65,0,1,1,54.63-54.65A54.64,54.64,0,0,1,266.17,546.74Z" transform="translate(0 -0.21)"/></svg>