<?xml version="1.0" encoding="utf-8"?>
<!-- Generator: Adobe Illustrator 19.2.1, SVG Export Plug-In . SVG Version: 6.00 Build 0)  -->
<svg version="1.1" id="Camada_1" xmlns="http://www.w3.org/2000/svg" xmlns:xlink="http://www.w3.org/1999/xlink" x="0px" y="0px"
	 viewBox="0 0 400 370.8" style="enable-background:new 0 0 400 370.8;" xml:space="preserve">
<style type="text/css">
	.st0{fill:#EEC4A8;}
	.st1{fill:#C24159;}
	.st2{fill:#FBDFCA;}
	.st3{fill:#F0F2F1;}
	.st4{fill:#FBCBAA;}
	.st5{fill:#A5304D;}
	.st6{fill:#F48677;}
	.st7{fill:#873357;}
	.st8{fill:#F4DB89;}
	.st9{fill:#E0B124;}
	.st10{fill:#F79E61;}
	.st11{fill:#FFFFFF;}
	.st12{fill:#663054;}
	.st13{fill:#81C3B5;}
	.st14{fill:#502D50;}
	.st15{fill:#F3805C;}
	.st16{fill:#EFCE59;}
	.st17{fill:#868E9C;}
	.st18{fill:#A52F4E;}
	.st19{fill:#E14958;}
	.st20{filter:url(#Adobe_OpacityMaskFilter);}
	.st21{opacity:0.86;}
	.st22{mask:url(#SVGID_1_);enable-background:new    ;}
	.st23{clip-path:url(#SVGID_3_);}
	.st24{clip-path:url(#SVGID_5_);}
	.st25{fill:#E43125;}
	.st26{fill:#F6F7F7;}
	.st27{fill:#C5C3C2;}
	.st28{clip-path:url(#SVGID_7_);}
	.st29{clip-path:url(#SVGID_9_);}
	.st30{fill:#EFEEEE;}
	.st31{fill:#DDDDDD;}
	.st32{fill:#F3F3F3;}
	.st33{fill:#E2E2E2;}
</style>
<g id="_x23_3_2_">
	<g>
		<g>
			<polygon class="st6" points="108.5,288.4 161.1,196 207.7,223.3 155.1,315.3 143.4,286 			"/>
		</g>
		<g>
			<polygon class="st7" points="108.5,288.4 161.1,196 207.7,223.3 155.1,315.3 143.4,286 			"/>
		</g>
		<g>
			<polygon class="st6" points="291.5,289.3 238.9,196.9 192.3,224.2 244.9,316.2 256.6,286.9 			"/>
		</g>
		<g>
			<polygon class="st7" points="291.5,289.3 238.9,196.9 192.3,224.2 244.9,316.2 256.6,286.9 			"/>
		</g>
		<g>
			<polygon class="st8" points="253.9,236.1 219.5,228.3 195,252 171.7,225.5 137.9,230.2 134.7,195 104.6,179 122.6,148.7 
				107.7,118 140.1,104.1 146,70.5 180.5,78.2 205,54.6 228.3,81.1 262,76.4 265.3,111.5 295.4,127.6 277.4,157.9 292.3,188.5 
				259.9,202.5 			"/>
		</g>
		<g>
			<path class="st8" d="M195,253.9C195,253.9,194.9,253.9,195,253.9c-0.6,0-1.1-0.3-1.5-0.7l-22.6-25.7l-32.7,4.6
				c-0.5,0.1-1.1-0.1-1.5-0.4c-0.4-0.3-0.7-0.8-0.7-1.4l-3.2-34.1l-29.1-15.5c-0.5-0.3-0.8-0.7-1-1.2c-0.1-0.5-0.1-1.1,0.2-1.5
				l17.4-29.4l-14.4-29.7c-0.2-0.5-0.3-1.1-0.1-1.6s0.6-0.9,1.1-1.1l31.4-13.5l5.8-32.5c0.1-0.5,0.4-1,0.9-1.3
				c0.5-0.3,1-0.4,1.5-0.3l33.4,7.5l23.8-22.9c0.4-0.4,0.9-0.6,1.5-0.6c0.5,0,1.1,0.3,1.4,0.7L229.1,79l32.7-4.6
				c0.5-0.1,1.1,0.1,1.5,0.4c0.4,0.3,0.7,0.8,0.7,1.4l3.2,34.1l29.1,15.5c0.5,0.3,0.8,0.7,1,1.2c0.1,0.5,0.1,1.1-0.2,1.5L279.6,158
				l14.4,29.7c0.2,0.5,0.3,1.1,0.1,1.6c-0.2,0.5-0.6,0.9-1.1,1.1l-31.4,13.6l-5.8,32.5c-0.1,0.5-0.4,1-0.9,1.3
				c-0.5,0.3-1,0.4-1.5,0.3l-33.4-7.5l-23.7,22.9C196,253.7,195.5,253.9,195,253.9z M171.7,223.5c0.6,0,1.1,0.2,1.5,0.7l21.9,24.9
				l23-22.2c0.5-0.5,1.2-0.7,1.8-0.5l32.4,7.3l5.6-31.5c0.1-0.7,0.6-1.2,1.2-1.5l30.5-13.2l-14-28.8c-0.3-0.6-0.3-1.3,0.1-1.9
				l16.9-28.6l-28.2-15c-0.6-0.3-1-0.9-1-1.6l-3.1-33.1l-31.7,4.4c-0.7,0.1-1.3-0.2-1.8-0.7l-21.9-24.9l-23,22.2
				c-0.5,0.5-1.2,0.7-1.8,0.5l-32.4-7.3l-5.6,31.5c-0.1,0.7-0.6,1.2-1.2,1.5L110.4,119l14,28.8c0.3,0.6,0.3,1.3-0.1,1.9l-16.9,28.6
				l28.2,15c0.6,0.3,1,0.9,1,1.6l3.1,33.1l31.7-4.4C171.5,223.5,171.6,223.5,171.7,223.5z"/>
		</g>
		<g>
			<circle class="st9" cx="200" cy="148" r="73.2"/>
		</g>
		<g>
			<circle class="st10" cx="200" cy="153.3" r="73.2"/>
		</g>
		<g>
			<polygon class="st11" points="170,181.1 189.7,181.1 189.7,125.2 169.4,129.4 169.4,114.2 189.6,110 210.8,110 210.8,181.1 
				230.6,181.1 230.6,196.6 170,196.6 			"/>
		</g>
		<g>
			<polygon class="st11" points="170.3,180.8 190,180.8 190,124.9 169.7,129.1 169.7,113.9 189.9,109.7 211.1,109.7 211.1,180.8 
				230.9,180.8 230.9,196.3 170.3,196.3 			"/>
		</g>
	</g>
</g>
</svg>
