<?xml version="1.0" encoding="utf-8"?>
<!-- Generator: Adobe Illustrator 19.2.1, SVG Export Plug-In . SVG Version: 6.00 Build 0)  -->
<svg version="1.1" id="Camada_1" xmlns="http://www.w3.org/2000/svg" xmlns:xlink="http://www.w3.org/1999/xlink" x="0px" y="0px"
	 viewBox="0 0 400 370.8" style="enable-background:new 0 0 400 370.8;" xml:space="preserve">
<style type="text/css">
	.st0{fill:#EEC4A8;}
	.st1{fill:#C24159;}
	.st2{fill:#FBDFCA;}
	.st3{fill:#F0F2F1;}
	.st4{fill:#FBCBAA;}
	.st5{fill:#A5304D;}
	.st6{fill:#F48677;}
	.st7{fill:#873357;}
	.st8{fill:#F4DB89;}
	.st9{fill:#E0B124;}
	.st10{fill:#F79E61;}
	.st11{fill:#FFFFFF;}
	.st12{fill:#663054;}
	.st13{fill:#81C3B5;}
	.st14{fill:#502D50;}
	.st15{fill:#F3805C;}
	.st16{fill:#EFCE59;}
	.st17{fill:#868E9C;}
	.st18{fill:#A52F4E;}
	.st19{fill:#E14958;}
	.st20{filter:url(#Adobe_OpacityMaskFilter);}
	.st21{opacity:0.86;}
	.st22{mask:url(#SVGID_1_);enable-background:new    ;}
	.st23{clip-path:url(#SVGID_3_);}
	.st24{clip-path:url(#SVGID_5_);}
	.st25{fill:#E43125;}
	.st26{fill:#F6F7F7;}
	.st27{fill:#C5C3C2;}
	.st28{clip-path:url(#SVGID_7_);}
	.st29{clip-path:url(#SVGID_9_);}
	.st30{fill:#EFEEEE;}
	.st31{fill:#DDDDDD;}
	.st32{fill:#F3F3F3;}
	.st33{fill:#E2E2E2;}
</style>
<g id="_x23_6_2_">
	<g>
		<g>
			<path class="st15" d="M92.8,157.3h25.7v-5.1c0-6.6-2.5-13.2-7.6-18.2c-5-5-11.6-7.5-18.2-7.5V157.3z"/>
		</g>
		<g>
			<path class="st15" d="M152.6,278.5H180v8.2c0,3.5-1.4,7-4,9.7c-2.7,2.7-6.2,4-9.7,4c-3.5,0-7-1.3-9.6-4c-2.7-2.7-4-6.2-4-9.7
				V278.5z"/>
		</g>
		<g>
			<path class="st15" d="M228.5,278.5h27.4v8.2c0,3.5-1.3,7-4,9.7c-2.7,2.7-6.2,4-9.6,4c-3.5,0-7-1.3-9.7-4c-2.7-2.7-4-6.2-4-9.7
				V278.5z"/>
		</g>
		<g>
			<g>
				<path class="st10" d="M83.4,207.6c0,19.8,7.5,39.5,22.6,54.6c15.1,15.1,34.8,22.6,54.6,22.6h64.6c19.8,0,39.5-7.5,54.6-22.6
					c15.1-15.1,22.6-34.8,22.6-54.6c0-19.8-7.6-39.5-22.6-54.6c-15.1-15.1-34.8-22.6-54.6-22.6h-64.6c-19.8,0-39.5,7.6-54.6,22.6
					C90.9,168.1,83.4,187.8,83.4,207.6z"/>
			</g>
			<g>
				<path class="st10" d="M331.7,202.4c1.3,0,2.6,0.5,3.6,1.5c1,1,1.5,2.3,1.5,3.6c0,1.3-0.5,2.6-1.5,3.6c-1,1-2.3,1.5-3.6,1.5
					h-12.3v-10.3H331.7z"/>
			</g>
			<g>
				<rect x="302" y="202.4" class="st10" width="17.4" height="10.3"/>
			</g>
			<g>
				<path class="st10" d="M319.4,202.4c-2.8,0-5.1-2.3-5.1-5.1c0-2.8,2.3-5.2,5.1-5.2c2.8,0,5.2,2.3,5.2,5.2
					C324.6,200.1,322.3,202.4,319.4,202.4z M319.4,181.8c-8.5,0-15.4,6.9-15.4,15.5c0,8.5,6.9,15.5,15.4,15.5
					c8.5,0,15.5-6.9,15.5-15.5C334.9,188.7,328,181.8,319.4,181.8z"/>
			</g>
			<g>
				<path class="st10" d="M129.9,278.5h27.3v8.2c0,3.5-1.3,7-4,9.7c-2.7,2.7-6.2,4-9.7,4c-3.5,0-7-1.3-9.7-4c-2.7-2.7-4-6.2-4-9.7
					V278.5z"/>
			</g>
			<g>
				<path class="st10" d="M205.8,278.5h27.4v8.2c0,3.5-1.3,7-4,9.7c-2.7,2.7-6.2,4-9.7,4c-3.5,0-7-1.3-9.7-4c-2.7-2.7-4-6.2-4-9.7
					V278.5z"/>
			</g>
		</g>
		<g>
			<path class="st15" d="M225.2,278.8c-1.9,0-3.3-1.5-3.3-3.3c0-1.8,1.5-3.3,3.3-3.3c17.2,0,33.5-6.7,45.7-18.9
				c12.2-12.2,18.9-28.4,18.9-45.7c0-1.9,1.5-3.3,3.3-3.3c1.8,0,3.3,1.5,3.3,3.3c0,19-7.4,36.9-20.9,50.4
				C262.1,271.4,244.2,278.8,225.2,278.8z"/>
		</g>
		<g>
			<path class="st15" d="M131.1,157.3h25.7v-5.1c0-6.6-2.5-13.2-7.5-18.2c-5-5-11.6-7.5-18.2-7.5V157.3z"/>
		</g>
		<g>
			<rect x="63.1" y="187" class="st15" width="23.1" height="41.2"/>
		</g>
		<g>
			<path class="st15" d="M221.1,132.4c0,1.3-0.5,2.6-1.5,3.6c-1,1-2.3,1.5-3.6,1.5h-46.1c-1.3,0-2.6-0.5-3.6-1.5
				c-1-1-1.5-2.3-1.5-3.6v-2.1h56.4V132.4z"/>
		</g>
		<g>
			<path class="st15" d="M129.7,189.2c-1.8,0-3.3-1.5-3.3-3.3c0-4.4-3.6-7.9-8-7.9c-4.4,0-8,3.6-8,7.9c0,1.9-1.5,3.3-3.3,3.3
				c-1.8,0-3.3-1.5-3.3-3.3c0-8,6.6-14.6,14.6-14.6s14.6,6.6,14.6,14.6C133,187.7,131.5,189.2,129.7,189.2z"/>
		</g>
		<g>
			<path class="st8" d="M220.3,97.9c0,15.1-12.3,27.4-27.4,27.4c-15.1,0-27.4-12.3-27.4-27.4c0-15.1,12.3-27.4,27.4-27.4
				C208,70.5,220.3,82.7,220.3,97.9z"/>
		</g>
		<g>
			<path class="st16" d="M214.8,97.9c0,12.1-9.8,21.9-21.9,21.9c-12.1,0-21.9-9.8-21.9-21.9c0-12.1,9.8-21.9,21.9-21.9
				C205,76,214.8,85.8,214.8,97.9z"/>
		</g>
		<g>
			<path class="st11" d="M195.2,99.7h-4.6c-1.9,0-3.7-0.8-5.1-2.1c-1.3-1.3-2.1-3.1-2.1-5.1c0-1.9,0.8-3.7,2.1-5.1
				c1.3-1.3,3.1-2.1,5.1-2.1h10V89h-10c-1,0-1.9,0.4-2.5,1c-0.7,0.7-1.1,1.6-1.1,2.5c0,1,0.4,1.9,1,2.5c0.7,0.7,1.6,1.1,2.5,1.1h4.6
				V99.7z"/>
		</g>
		<g>
			<path class="st3" d="M195.2,110.4h-10v-3.6h10c0.9,0,1.8-0.4,2.5-1c0.7-0.6,1-1.5,1-2.5c0-0.9-0.4-1.9-1-2.5
				c-0.7-0.7-1.6-1.1-2.5-1.1h-4.6v-3.6h4.6c1.9,0,3.7,0.8,5.1,2.1c1.3,1.3,2.1,3.2,2.1,5.1c0,1.9-0.8,3.7-2.1,5.1
				C198.9,109.7,197.1,110.4,195.2,110.4z"/>
		</g>
		<g>
			<rect x="191.1" y="84.1" class="st3" width="3.6" height="27.6"/>
		</g>
	</g>
</g>
</svg>
