<?xml version="1.0" encoding="utf-8"?>
<!-- Generator: Adobe Illustrator 19.2.1, SVG Export Plug-In . SVG Version: 6.00 Build 0)  -->
<svg version="1.1" id="Camada_1" xmlns="http://www.w3.org/2000/svg" xmlns:xlink="http://www.w3.org/1999/xlink" x="0px" y="0px"
	 viewBox="0 0 400 370.8" style="enable-background:new 0 0 400 370.8;" xml:space="preserve">
<style type="text/css">
	.st0{fill:#EEC4A8;}
	.st1{fill:#C24159;}
	.st2{fill:#FBDFCA;}
	.st3{fill:#F0F2F1;}
	.st4{fill:#FBCBAA;}
	.st5{fill:#A5304D;}
	.st6{fill:#F48677;}
	.st7{fill:#873357;}
	.st8{fill:#F4DB89;}
	.st9{fill:#E0B124;}
	.st10{fill:#F79E61;}
	.st11{fill:#FFFFFF;}
	.st12{fill:#663054;}
	.st13{fill:#81C3B5;}
	.st14{fill:#502D50;}
	.st15{fill:#F3805C;}
	.st16{fill:#EFCE59;}
	.st17{fill:#868E9C;}
	.st18{fill:#A52F4E;}
	.st19{fill:#E14958;}
	.st20{filter:url(#Adobe_OpacityMaskFilter);}
	.st21{opacity:0.86;}
	.st22{mask:url(#SVGID_1_);enable-background:new    ;}
	.st23{clip-path:url(#SVGID_3_);}
	.st24{clip-path:url(#SVGID_5_);}
	.st25{fill:#E43125;}
	.st26{fill:#F6F7F7;}
	.st27{fill:#C5C3C2;}
	.st28{clip-path:url(#SVGID_7_);}
	.st29{clip-path:url(#SVGID_9_);}
	.st30{fill:#EFEEEE;}
	.st31{fill:#DDDDDD;}
	.st32{fill:#F3F3F3;}
	.st33{fill:#E2E2E2;}
</style>
<g>
	<g>
		<path class="st17" d="M59.2,110.4L59.2,110.4c0,0.3,0,0.7,0,1V110.4z"/>
	</g>
	<g>
		<path class="st17" d="M85.6,110.4v1C85.6,111.1,85.6,110.8,85.6,110.4L85.6,110.4z"/>
	</g>
	<g>
		<polygon class="st0" points="23.4,151.3 68.5,104 90.5,102.6 130.1,132.1 117.8,145.9 83.8,118.8 73.5,122.4 46.8,151.9 		"/>
	</g>
	<g>
		<polygon class="st0" points="169.3,124.3 180.9,92.6 210.4,86 254.7,141.4 259.7,138.5 284.3,98.7 305.3,88.9 351.6,112.9 
			364.4,111.1 377.7,116.8 355.9,132.1 308.9,108.9 297.4,108.6 272.5,150.2 247.2,158.5 203.2,101.8 195.6,101.8 187.1,126.2 		"/>
	</g>
	<g>
		<polyline class="st14" points="198.3,228.5 272.8,301.1 286.9,286.9 213,213 		"/>
	</g>
	<g>
		<path class="st14" d="M289.5,293.6c0,5.6-4.5,10.1-10.1,10.1c-5.6,0-10.1-4.5-10.1-10.1c0-5.6,4.5-10.1,10.1-10.1
			C285,283.5,289.5,288,289.5,293.6"/>
	</g>
	<g>
		<path class="st3" d="M222.7,180.3c0,32.9-26.7,59.6-59.6,59.6c-32.9,0-59.6-26.7-59.6-59.6s26.7-59.6,59.6-59.6
			C196,120.7,222.7,147.4,222.7,180.3"/>
	</g>
	<g>
		<path class="st18" d="M216.8,179.6c0,29.2-23.7,53-53,53s-53-23.7-53-53c0-29.3,23.7-53,53-53S216.8,150.4,216.8,179.6"/>
	</g>
	<g>
		<path class="st0" d="M114.7,159.9l28.9,22.9l40.2-5.9l13.4-38.5c0,0-4.6-3.7-9.1-5.9c-5.8-2.9-11.3-4.3-11.3-4.3l-10.2,28
			l-11.8,5.4l-27-20.7c0,0-3.9,3.4-7.6,8.8C116.6,154.8,114.7,159.9,114.7,159.9"/>
	</g>
	<g>
		<path class="st10" d="M98.7,106.7c0,11-8.9,19.9-19.9,19.9c-11,0-19.9-8.9-19.9-19.9c0-11,8.9-19.9,19.9-19.9
			C89.8,86.8,98.7,95.7,98.7,106.7"/>
	</g>
	<g>
		<path class="st3" d="M83.8,105.7c0,2.8-2.3,5.1-5.2,5.1c-2.8,0-5.1-2.3-5.1-5.1c0-2.8,2.3-5.1,5.1-5.1
			C81.5,100.6,83.8,102.9,83.8,105.7"/>
	</g>
	<g>
		<path class="st14" d="M216.9,87c0,11-8.9,19.9-19.9,19.9c-11,0-19.9-8.9-19.9-19.9c0-11,8.9-19.9,19.9-19.9
			C208,67.1,216.9,76,216.9,87"/>
	</g>
	<g>
		<path class="st3" d="M202,86c0,2.8-2.3,5.1-5.1,5.1c-2.8,0-5.1-2.3-5.1-5.1c0-2.8,2.3-5.1,5.1-5.1C199.7,80.9,202,83.2,202,86"/>
	</g>
	<g>
		<path class="st19" d="M317.4,96.8c0,11-8.9,19.9-19.9,19.9c-11,0-19.9-8.9-19.9-19.9c0-11,8.9-19.9,19.9-19.9
			C308.5,77,317.4,85.9,317.4,96.8"/>
	</g>
	<g>
		<path class="st3" d="M302.5,95.9c0,2.8-2.3,5.1-5.1,5.1c-2.8,0-5.1-2.3-5.1-5.1c0-2.8,2.3-5.2,5.1-5.2
			C300.2,90.7,302.5,93.1,302.5,95.9"/>
	</g>
	<g>
		<path class="st10" d="M278,152c0,11-8.9,19.9-19.9,19.9c-11,0-19.9-8.9-19.9-19.9c0-11,8.9-19.9,19.9-19.9
			C269.1,132.1,278,141.1,278,152"/>
	</g>
	<g>
		<path class="st3" d="M263.1,151.1c0,2.8-2.3,5.2-5.1,5.2s-5.1-2.3-5.1-5.2c0-2.8,2.3-5.1,5.1-5.1S263.1,148.2,263.1,151.1"/>
	</g>
	<g>
		<path class="st19" d="M384.4,122.5c0,11-8.9,19.9-19.9,19.9c-11,0-19.9-8.9-19.9-19.9c0-11,8.9-19.9,19.9-19.9
			C375.5,102.6,384.4,111.5,384.4,122.5"/>
	</g>
	<g>
		<path class="st3" d="M369.5,121.3c0.1,2.8-2.1,5.2-4.9,5.4c-2.8,0.1-5.2-2.1-5.4-4.9s2.1-5.2,4.9-5.4
			C367,116.2,369.4,118.4,369.5,121.3"/>
	</g>
	<g>
		<path class="st19" d="M191.4,173.3c0,15.1-12.2,27.3-27.3,27.3c-15.1,0-27.3-12.2-27.3-27.3c0-15.1,12.2-27.3,27.3-27.3
			C179.2,145.9,191.4,158.2,191.4,173.3"/>
	</g>
	<g>
		<path class="st3" d="M170.9,171.9c0,3.9-3.1,7.1-7.1,7.1s-7.1-3.1-7.1-7.1c0-3.9,3.1-7.1,7.1-7.1S170.9,168,170.9,171.9"/>
	</g>
	<g>
		<path class="st19" d="M55.3,156c0,11-8.9,19.9-19.9,19.9c-11,0-19.9-8.9-19.9-19.9c0-11,8.9-19.9,19.9-19.9
			C46.4,136.1,55.3,145,55.3,156"/>
	</g>
	<g>
		<path class="st3" d="M40.4,155c0,2.8-2.3,5.1-5.2,5.1c-2.8,0-5.1-2.3-5.1-5.1c0-2.8,2.3-5.1,5.1-5.1
			C38.1,149.9,40.4,152.2,40.4,155"/>
	</g>
</g>
</svg>
