<?xml version="1.0" encoding="utf-8"?>
<!-- Generator: Adobe Illustrator 19.2.0, SVG Export Plug-In . SVG Version: 6.00 Build 0)  -->
<svg version="1.1" id="Layer_1" xmlns="http://www.w3.org/2000/svg" xmlns:xlink="http://www.w3.org/1999/xlink" x="0px" y="0px"
	 viewBox="0 0 500 120" style="enable-background:new 0 0 500 120;" xml:space="preserve">
<style type="text/css">
	.st0{fill:url(#SVGID_1_);}
	.st1{fill:url(#SVGID_2_);}
	.st2{fill:url(#SVGID_3_);}
	.st3{fill:url(#SVGID_4_);}
	.st4{fill:url(#SVGID_5_);}
	.st5{fill:url(#SVGID_6_);}
	.st6{fill:url(#SVGID_7_);}
	.st7{fill:url(#SVGID_8_);}
	.st8{fill:url(#SVGID_9_);}
	.st9{fill:url(#SVGID_10_);}
	.st10{fill:url(#SVGID_11_);}
	.st11{fill:url(#SVGID_12_);}
	.st12{fill:url(#SVGID_13_);}
	.st13{fill:url(#SVGID_14_);}
	.st14{fill:url(#SVGID_15_);}
	.st15{fill:url(#SVGID_16_);}
	.st16{fill:url(#SVGID_17_);}
	.st17{fill:url(#SVGID_18_);}
	.st18{opacity:0.14;}
	.st19{fill:none;}
	.st20{fill:#6F9D10;}
</style>
<g>
	
		<linearGradient id="SVGID_1_" gradientUnits="userSpaceOnUse" x1="78.212" y1="92.3987" x2="85.4644" y2="-13.3629" gradientTransform="matrix(1 0 0 -1 0 122)">
		<stop  offset="0" style="stop-color:#90B91B"/>
		<stop  offset="0.5092" style="stop-color:#85B017"/>
		<stop  offset="1" style="stop-color:#6F9D10"/>
	</linearGradient>
	<path class="st0" d="M99.3,65.8c-4.9,2.8-10.3,4.1-15.6,4.1c-3.4,0-6.8-0.6-9.7-1.7c-5.3,4.7-10.9,8.1-13.8,9.6
		c4.1,6.5,10.7,11.6,18.8,13.6c2.5,0.6,5,0.9,7.5,0.9c5.5,0,10.9-1.5,15.4-4c0.7-2.6,1-5.2,1-7.9C103,75.4,101.8,70.5,99.3,65.8z"/>
	
		<linearGradient id="SVGID_2_" gradientUnits="userSpaceOnUse" x1="93.5739" y1="93.4426" x2="100.8568" y2="-12.7649" gradientTransform="matrix(1 0 0 -1 0 122)">
		<stop  offset="0" style="stop-color:#90B91B"/>
		<stop  offset="0.5092" style="stop-color:#85B017"/>
		<stop  offset="1" style="stop-color:#6F9D10"/>
	</linearGradient>
	<path class="st1" d="M94,26.9c-0.4-0.1-0.7-0.3-1.1-0.3l0,0C93.3,26.6,93.7,26.8,94,26.9z"/>
	
		<linearGradient id="SVGID_3_" gradientUnits="userSpaceOnUse" x1="93.1079" y1="93.4175" x2="100.3601" y2="-12.3412" gradientTransform="matrix(1 0 0 -1 0 122)">
		<stop  offset="0" style="stop-color:#90B91B"/>
		<stop  offset="0.5092" style="stop-color:#85B017"/>
		<stop  offset="1" style="stop-color:#6F9D10"/>
	</linearGradient>
	<path class="st2" d="M92.9,26.8C92,33,89.3,38.6,85.5,42.7c0.2,1.1,0.3,2.3,0.3,3.5c0,7.3-3.8,13.6-8.5,18.7c1.3,0.2,2.7,0.3,4,0.3
		c6.7,0,13.4-2.1,19.1-6.6c6.6-5.2,10.5-12.5,11.7-19.9c-4.4-5.8-11-10-18.2-11.8c-0.4-0.1-0.7-0.2-1.1-0.3L92.9,26.8z"/>
	
		<linearGradient id="SVGID_4_" gradientUnits="userSpaceOnUse" x1="74.7224" y1="92.1582" x2="81.9742" y2="-13.5945" gradientTransform="matrix(1 0 0 -1 0 122)">
		<stop  offset="0" style="stop-color:#90B91B"/>
		<stop  offset="0.5092" style="stop-color:#85B017"/>
		<stop  offset="1" style="stop-color:#6F9D10"/>
	</linearGradient>
	<path class="st3" d="M88,21.5c0-8.4-3.3-16-8.5-21.5c-0.2,0-0.3,0-0.4,0c-7.4,0-13.9,2.6-19.8,8c5.6,6,7.6,13.6,7.6,21.1
		c0,0.6,0,1.2,0,1.8c1.3-0.3,2.5-0.5,3.8-0.5c0.1,0,0.2,0,0.3,0c4.8,0.1,9.7,2.5,12.5,7C86.3,32.8,88,27.4,88,21.5z"/>
	
		<linearGradient id="SVGID_5_" gradientUnits="userSpaceOnUse" x1="43.4496" y1="90.0143" x2="50.7014" y2="-15.7387" gradientTransform="matrix(1 0 0 -1 0 122)">
		<stop  offset="0" style="stop-color:#90B91B"/>
		<stop  offset="0.5092" style="stop-color:#85B017"/>
		<stop  offset="1" style="stop-color:#6F9D10"/>
	</linearGradient>
	<path class="st4" d="M32.1,0.6c-0.5,0-0.9,0-1.1-0.1c-5.1,5.6-8.1,12.9-8.1,20.9c0,0.1,0,0.2,0,0.3c0.4,0,0.7,0,1.1,0
		c8.5,0,16.3,3.4,21.9,8.9c4.6,0.3,9.4,2.8,11.9,7.7c1.3-2.6,3.3-4.5,5.4-5.5c0-0.3,0-0.7,0-1.1c0-8.6-3.5-17.1-10.4-23.2
		C46.7,3.2,39.4,0.6,32.1,0.6z"/>
	
		<linearGradient id="SVGID_6_" gradientUnits="userSpaceOnUse" x1="41.7" y1="90.9" x2="41.7" y2="90.9" gradientTransform="matrix(1 0 0 -1 0 122)">
		<stop  offset="0" style="stop-color:#90B91B"/>
		<stop  offset="0.5092" style="stop-color:#85B017"/>
		<stop  offset="1" style="stop-color:#6F9D10"/>
	</linearGradient>
	<path class="st5" d="M41.7,31.1L41.7,31.1L41.7,31.1L41.7,31.1z"/>
	
		<linearGradient id="SVGID_7_" gradientUnits="userSpaceOnUse" x1="20.292" y1="88.4243" x2="27.5437" y2="-17.3266" gradientTransform="matrix(1 0 0 -1 0 122)">
		<stop  offset="0" style="stop-color:#90B91B"/>
		<stop  offset="0.5092" style="stop-color:#85B017"/>
		<stop  offset="1" style="stop-color:#6F9D10"/>
	</linearGradient>
	<path class="st6" d="M40.8,31c-4.7-2.7-10-4.2-15.6-4.2c-1.8,0-3.6,0.2-5.5,0.5c-8.3,1.4-15.2,6-19.7,12
		c1.2,7.5,5.2,14.5,11.5,19.5c4.7-6.2,11.2-10.3,17.9-11.6c0-0.3,0-0.7,0-1C29.5,37.8,34.7,32.5,40.8,31z"/>
	
		<linearGradient id="SVGID_8_" gradientUnits="userSpaceOnUse" x1="21.1752" y1="88.4854" x2="28.4275" y2="-17.2745" gradientTransform="matrix(1 0 0 -1 0 122)">
		<stop  offset="0" style="stop-color:#90B91B"/>
		<stop  offset="0.5092" style="stop-color:#85B017"/>
		<stop  offset="1" style="stop-color:#6F9D10"/>
	</linearGradient>
	<path class="st7" d="M13.4,65.9c-2.5,4.6-3.6,9.6-3.6,14.5c0,2.9,0.4,5.8,1.1,8.4c4.5,2.5,9.6,3.8,14.9,3.8c2.5,0,5-0.3,7.6-0.9
		c-0.8-2.8-1.2-5.6-1.2-8.4c0-6.6,2.1-13,5.8-18.3c-3.6-3.9-6.7-8.5-7.9-13.7C23.2,53.9,17.2,58.9,13.4,65.9z"/>
	
		<linearGradient id="SVGID_9_" gradientUnits="userSpaceOnUse" x1="35.2715" y1="89.4938" x2="42.5286" y2="-16.3363" gradientTransform="matrix(1 0 0 -1 0 122)">
		<stop  offset="0" style="stop-color:#90B91B"/>
		<stop  offset="0.5092" style="stop-color:#85B017"/>
		<stop  offset="1" style="stop-color:#6F9D10"/>
	</linearGradient>
	<path class="st8" d="M39.7,94.8L39.7,94.8L39.4,95l0,0L39.7,94.8z"/>
	
		<linearGradient id="SVGID_10_" gradientUnits="userSpaceOnUse" x1="50.9616" y1="90.5257" x2="58.2135" y2="-15.2295" gradientTransform="matrix(1 0 0 -1 0 122)">
		<stop  offset="0" style="stop-color:#90B91B"/>
		<stop  offset="0.5092" style="stop-color:#85B017"/>
		<stop  offset="1" style="stop-color:#6F9D10"/>
	</linearGradient>
	<path class="st9" d="M56.5,110.8c7-3,12.9-8.5,16.1-16c-7.9-3.3-13.8-9.5-16.8-16.6c-2.5-1.3-9.1-5-15.1-10.5
		c-2.3,4.4-3.5,9.3-3.5,14.2c0,4.2,0.8,8.5,2.7,12.6C43.5,102.3,49.6,107.9,56.5,110.8z"/>
	
		<linearGradient id="SVGID_11_" gradientUnits="userSpaceOnUse" x1="35.509" y1="90.6041" x2="42.8931" y2="-17.0775" gradientTransform="matrix(1 0 0 -1 0 122)">
		<stop  offset="0" style="stop-color:#90B91B"/>
		<stop  offset="0.5092" style="stop-color:#85B017"/>
		<stop  offset="1" style="stop-color:#6F9D10"/>
	</linearGradient>
	<path class="st10" d="M40,94.6l-0.3,0.2l0,0L40,94.6z"/>
	
		<linearGradient id="SVGID_12_" gradientUnits="userSpaceOnUse" x1="131.5789" y1="96.059" x2="138.8313" y2="-9.7033" gradientTransform="matrix(1 0 0 -1 0 122)">
		<stop  offset="0" style="stop-color:#90B91B"/>
		<stop  offset="0.5092" style="stop-color:#85B017"/>
		<stop  offset="1" style="stop-color:#6F9D10"/>
	</linearGradient>
	<path class="st11" d="M156.7,73l-27.1,32H153c2.5,0,4.6,2.1,4.6,4.6s-2.1,4.7-4.6,4.7h-34.1c-2.4,0-4.7-2.3-4.7-4.8
		c0-1.2,0.4-2.4,1.2-3.4l27-32h-23.6c-2.5,0-4.7-2.2-4.7-4.7s2.2-4.6,4.7-4.6h33.5c3.2,0,5.4,2.4,5.4,5.1
		C157.8,71,157.5,72.1,156.7,73z"/>
	
		<linearGradient id="SVGID_13_" gradientUnits="userSpaceOnUse" x1="185.2002" y1="99.734" x2="192.4525" y2="-6.0255" gradientTransform="matrix(1 0 0 -1 0 122)">
		<stop  offset="0" style="stop-color:#90B91B"/>
		<stop  offset="0.5092" style="stop-color:#85B017"/>
		<stop  offset="1" style="stop-color:#6F9D10"/>
	</linearGradient>
	<path class="st12" d="M211,92.9c0,0,0,0-35.3,0c0.6,7.7,6.7,13.4,15,13.4c5.8,0,10.9-2.4,14.9-6.3c0.8-0.8,1.7-1,2.8-1
		c1.4,0,2.7,0.7,3.7,1.8c0.6,0.8,0.9,1.7,0.9,2.6c0,1.3-0.6,2.6-1.6,3.7c-4.8,5.1-12.9,8.6-20.9,8.6c-14.5,0-26.2-11.7-26.2-26.2
		s11.3-26.2,25.8-26.2c14.4,0,25.2,11.2,25.2,26C215.1,91.4,213.2,92.9,211,92.9z M190,72.6c-7.7,0-12.9,5-14.1,12.4
		c17.3,0,28.1,0,28.1,0C203,78,197.5,72.6,190,72.6z"/>
	
		<linearGradient id="SVGID_14_" gradientUnits="userSpaceOnUse" x1="303.5101" y1="107.8465" x2="310.7625" y2="2.0861" gradientTransform="matrix(1 0 0 -1 0 122)">
		<stop  offset="0" style="stop-color:#90B91B"/>
		<stop  offset="0.5092" style="stop-color:#85B017"/>
		<stop  offset="1" style="stop-color:#6F9D10"/>
	</linearGradient>
	<path class="st13" d="M327.7,115.2c-3.1,0-5.6-2.5-5.6-5.6V107c-3.2,5.5-9.2,8.7-16.4,8.7c-14.5,0-24.8-11.2-24.8-26.2
		s9.9-26.2,24.8-26.2c7.3,0,13.5,3.6,16.4,8.8V42.6c0-3.1,2.5-5.5,5.6-5.5s5.6,2.4,5.6,5.5v67C333.3,112.7,330.8,115.2,327.7,115.2z
		 M307.1,73.2c-9.1,0-15,7.3-15,16.2s5.8,16.3,15,16.3s15-7,15-16.3C322.1,80.2,316.3,73.2,307.1,73.2z"/>
	
		<linearGradient id="SVGID_15_" gradientUnits="userSpaceOnUse" x1="363.4122" y1="111.955" x2="370.6644" y2="6.1962" gradientTransform="matrix(1 0 0 -1 0 122)">
		<stop  offset="0" style="stop-color:#90B91B"/>
		<stop  offset="0.5092" style="stop-color:#85B017"/>
		<stop  offset="1" style="stop-color:#6F9D10"/>
	</linearGradient>
	<path class="st14" d="M390.2,92.9c0,0,0,0-35.4,0c0.6,7.7,6.8,13.4,15,13.4c5.8,0,10.9-2.4,14.9-6.3c0.8-0.8,1.7-1,2.7-1
		c1.4,0,2.8,0.7,3.7,1.8c0.6,0.8,0.9,1.7,0.9,2.6c0,1.3-0.6,2.6-1.6,3.7c-4.8,5.1-12.9,8.6-20.9,8.6c-14.5,0-26.2-11.7-26.2-26.2
		s11.3-26.2,25.9-26.2c14.4,0,25.2,11.2,25.2,26C394.4,91.4,392.4,92.9,390.2,92.9z M369.2,72.6c-7.7,0-12.9,5-14.1,12.4
		c17.3,0,28.1,0,28.1,0C382.2,78,376.7,72.6,369.2,72.6z"/>
	
		<linearGradient id="SVGID_16_" gradientUnits="userSpaceOnUse" x1="416.888" y1="115.6205" x2="424.1401" y2="9.8627" gradientTransform="matrix(1 0 0 -1 0 122)">
		<stop  offset="0" style="stop-color:#90B91B"/>
		<stop  offset="0.5092" style="stop-color:#85B017"/>
		<stop  offset="1" style="stop-color:#6F9D10"/>
	</linearGradient>
	<path class="st15" d="M422.3,115.7c-5.6,0-12.9-1.8-18.3-5c-1.7-1-2.8-2.6-2.8-4.3c0-0.6,0.2-1.1,0.5-1.7c0.7-1.6,2-2.6,3.6-2.6
		c0.7,0,1.6,0.2,2.3,0.7c4.2,2.5,9.2,4,14.1,4c5.6,0,11.7-1.6,11.7-6.1c0-3.4-3.1-4.7-14.8-8.7C409,88.7,404,84.3,404,77.2
		c0-8.5,8.5-13.8,19.6-13.8c7.6,0,12.4,1.6,17.2,3.9c1.9,0.9,3.1,2.4,3.1,4.2c0,0.6-0.1,1-0.3,1.6c-0.7,1.8-2.4,3-4.3,3
		c-0.6,0-1.1-0.1-1.6-0.3c-4.1-1.9-8.5-3.1-13.1-3.1c-6.1,0-9.8,1.4-9.8,5c0,3.7,3,4.5,11.5,7.2c10.4,3.4,17.7,7,17.7,15.6
		C443.8,108.7,436.1,115.7,422.3,115.7z"/>
	
		<linearGradient id="SVGID_17_" gradientUnits="userSpaceOnUse" x1="471.1559" y1="119.3428" x2="478.4081" y2="13.5838" gradientTransform="matrix(1 0 0 -1 0 122)">
		<stop  offset="0" style="stop-color:#90B91B"/>
		<stop  offset="0.5092" style="stop-color:#85B017"/>
		<stop  offset="1" style="stop-color:#6F9D10"/>
	</linearGradient>
	<path class="st16" d="M495.1,115.1c-1.5,0.1-3-0.6-4-1.7l-18.9-21.5l-5.7,4.5v13.3c0,3.1-2.4,5.6-5.5,5.6s-5.5-2.5-5.5-5.6v-67
		c0-3.1,2.4-5.6,5.5-5.6s5.5,2.5,5.5,5.6v40.6l23.8-18.4c0.9-0.7,1.9-1.1,3.1-1.1c1.6,0,3,0.8,4,1.9c0.7,0.9,1.3,2,1.3,3.2
		c0,1.6-0.8,3-2.1,4l-16.1,12.7l18.3,21.1c0.8,0.9,1.2,2.2,1.2,3.4C500,112.8,497.8,115,495.1,115.1z"/>
	
		<linearGradient id="SVGID_18_" gradientUnits="userSpaceOnUse" x1="242.9309" y1="103.6926" x2="250.1832" y2="-2.0664" gradientTransform="matrix(1 0 0 -1 0 122)">
		<stop  offset="0" style="stop-color:#90B91B"/>
		<stop  offset="0.5092" style="stop-color:#85B017"/>
		<stop  offset="1" style="stop-color:#6F9D10"/>
	</linearGradient>
	<path class="st17" d="M248.4,63c-13,0-23.7,10.1-23.7,23.7v23.4c0,3.1,2.4,5.6,5.6,5.6c3.1,0,5.7-2.4,5.7-5.6v-23
		c0-7.8,4.3-13.8,12.4-13.9c8.1,0.2,12.4,6.1,12.4,13.9v23.1c0,3.1,2.6,5.6,5.7,5.6s5.6-2.4,5.6-5.6V86.7
		C272.1,73.1,261.4,63,248.4,63z"/>
</g>
<g class="st18">
	<path class="st19" d="M307.1,105.7c9.2,0,15-7,15-16.3c0-2.7-0.5-5.2-1.5-7.4c-2.5-4.5-7-7.4-12.8-7.4c-9.1,0-15,7.3-15,16.2
		c0,2.6,0.5,5.1,1.5,7.3C296.7,102.6,301.2,105.7,307.1,105.7z"/>
	<path class="st19" d="M382.1,81.1c-2.4-4.2-6.8-7-12.2-7c-7.1,0-12.2,4.4-13.7,10.9c16.7,0,27.1,0,27.1,0
		C383,83.6,382.6,82.3,382.1,81.1z"/>
	<path class="st19" d="M202.9,81.1c-2.4-4.2-6.8-7-12.2-7c-7.1,0-12.1,4.4-13.7,10.9c16.6,0,27.1,0,27.1,0
		C203.8,83.6,203.4,82.3,202.9,81.1z"/>
	<path class="st20" d="M84.4,71.3c5.3,0,10.6-1.3,15.5-4.1c-0.2-0.5-0.4-1-0.7-1.5c-4.9,2.8-10.3,4.1-15.6,4.1
		c-3.4,0-6.8-0.6-9.7-1.7c-5.3,4.7-10.9,8.1-13.8,9.6c0.3,0.5,0.6,0.9,0.9,1.3c2.9-1.6,8.4-4.8,13.5-9.5
		C77.6,70.7,81,71.3,84.4,71.3z"/>
	<path class="st20" d="M92.9,26.5L92.9,26.5c0.4,0.1,0.7,0.3,1.1,0.3C93.6,26.7,93.3,26.6,92.9,26.5z"/>
	<path class="st20" d="M86.2,44.1c3.8-4.1,6.5-9.6,7.4-15.9V28l0,0c0.4,0.1,0.7,0.2,1.1,0.3c6.8,1.7,13,5.6,17.4,10.9
		c0-0.2,0.1-0.3,0.1-0.5c-4.4-5.8-11-10-18.2-11.8c-0.4-0.1-0.7-0.2-1.1-0.3v0.2C92,33,89.3,38.5,85.5,42.7c0.2,1.1,0.3,2.3,0.3,3.5
		c0,7.3-3.8,13.6-8.5,18.7C78,65,78.6,65,79.2,65c4.1-4.9,7.3-10.7,7.3-17.4C86.5,46.4,86.4,45.2,86.2,44.1z"/>
	<path class="st20" d="M79.7,1.4c0.1,0,0.3,0,0.4,0c1.9,2,3.5,4.2,4.8,6.7c-1.4-3-3.3-5.8-5.5-8.1c-0.2,0-0.3,0-0.4,0
		c-7.4,0-13.9,2.6-19.8,8c0.4,0.4,0.7,0.8,1,1.2C66,4,72.4,1.4,79.7,1.4z"/>
	<path class="st20" d="M64.3,15.6c1.8,4.2,2.6,8.9,2.6,13.5c0,0.6,0,1.2,0,1.8c0.2-0.1,0.5-0.1,0.7-0.1c0-0.1,0-0.2,0-0.2
		C67.6,25.4,66.6,20.3,64.3,15.6z"/>
	<path class="st20" d="M31.7,1.9C31.8,2,32.3,2,32.7,2C40,2,47.4,4.5,53.3,9.8c3.1,2.7,5.5,6,7.2,9.5c-1.7-4.1-4.4-7.8-7.9-10.9
		C46.7,3.1,39.4,0.6,32,0.6c-0.5,0-0.9,0-1.1-0.1c-5.1,5.6-8.1,12.9-8.1,20.9c0,0.1,0,0.2,0,0.3c0.3,0,0.5,0,0.8,0
		C23.9,14.1,26.8,7.2,31.7,1.9z"/>
	<path class="st20" d="M41.7,31.1L41.7,31.1L41.7,31.1L41.7,31.1z"/>
	<path class="st20" d="M0.7,40.7c4.5-6,11.4-10.6,19.6-12.1c1.8-0.3,3.7-0.5,5.5-0.5c4.8,0,9.5,1.2,13.6,3.2
		c0.4-0.2,0.9-0.3,1.3-0.4c-4.7-2.7-10-4.2-15.6-4.2c-1.8,0-3.6,0.2-5.5,0.5c-8.2,1.5-15.1,6-19.6,12.1c0.5,3.2,1.5,6.2,3,9.1
		C1.9,45.9,1.1,43.4,0.7,40.7z"/>
	<path class="st20" d="M38,64.9c-2.2-2.4-4.1-5-5.7-7.8c1.4,3,3.3,5.7,5.4,8.2C37.8,65.2,37.9,65.1,38,64.9z"/>
	<path class="st20" d="M14.1,67.3c3.7-6.9,9.6-11.9,16.4-14.5c-0.2-0.5-0.3-1-0.4-1.5c-6.9,2.6-12.9,7.6-16.7,14.6
		c-2.5,4.6-3.6,9.6-3.6,14.5c0,2.9,0.4,5.8,1.1,8.4c0.1,0.1,0.3,0.1,0.4,0.2c-0.5-2.3-0.8-4.7-0.8-7.2
		C10.5,76.9,11.6,71.9,14.1,67.3z"/>
	<path class="st20" d="M39.3,94.9L39.3,94.9l0.3-0.2l0,0L39.3,94.9z"/>
	<path class="st20" d="M72.2,95.7c0.1-0.3,0.3-0.6,0.4-0.9c-6.9-2.9-12.2-7.9-15.5-13.9C60.1,87.1,65.3,92.5,72.2,95.7z"/>
	<path class="st20" d="M41.5,69.1c6,5.5,12.5,9.1,15,10.5c-0.2-0.5-0.5-0.9-0.7-1.4c-2.5-1.3-9.1-5-15.1-10.5
		c-2.3,4.4-3.5,9.3-3.5,14.2c0,4.2,0.8,8.5,2.7,12.6c0.2,0.4,0.4,0.8,0.6,1.2c-1.8-4-2.6-8.2-2.6-12.4C38,78.4,39.2,73.5,41.5,69.1z
		"/>
	<path class="st20" d="M39.7,94.7l0.3-0.2L39.7,94.7L39.7,94.7z"/>
	<path class="st20" d="M116.2,107.4l27-32h-1.9L115.5,106c-0.8,1-1.2,2.3-1.2,3.4c0,1,0.3,1.9,0.9,2.7c-0.1-0.4-0.2-0.8-0.2-1.3
		C114.9,109.7,115.4,108.5,116.2,107.4z"/>
	<path class="st20" d="M119.6,66.1h33.5c1.9,0,3.5,0.9,4.4,2.2c-0.6-2.1-2.5-3.6-5.1-3.6h-33.5c-2.5,0-4.7,2.1-4.7,4.6
		c0,1,0.3,1.9,0.9,2.7c-0.1-0.4-0.2-0.8-0.2-1.3C114.9,68.2,117.1,66.1,119.6,66.1z"/>
	<path class="st20" d="M153.7,106.4c1.5,0,2.8,0.8,3.7,1.9c-0.5-1.9-2.3-3.3-4.4-3.3h-21.5l-1.2,1.4H153.7z"/>
	<path class="st20" d="M191.3,107.7c5.8,0,10.9-2.4,14.9-6.3c0.8-0.8,1.7-1,2.8-1c1.4,0,2.7,0.7,3.7,1.8l0,0c-0.2-0.5-0.4-1-0.7-1.4
		c-0.9-1.1-2.3-1.8-3.7-1.8c-1,0-2,0.2-2.8,1c-4,3.9-9,6.3-14.9,6.3s-10.7-2.9-13.1-7.4C179.7,104.1,184.8,107.7,191.3,107.7z"/>
	<path class="st20" d="M190.6,64.6c9.7,0,17.8,5.1,22,13c-4-8.7-12.4-14.5-22.7-14.5c-14.5,0-25.8,11.7-25.8,26.2
		c0,4.6,1.2,8.9,3.2,12.6c-1.6-3.4-2.5-7.1-2.5-11.1C164.8,76.3,176.1,64.6,190.6,64.6z"/>
	<path class="st20" d="M204,84.9c0,0-10.4,0-27.1,0c-0.1,0.5-0.3,0.9-0.3,1.4c17.3,0,28.1,0,28.1,0c-0.3-1.9-0.9-3.7-1.8-5.3
		C203.4,82.3,203.8,83.6,204,84.9z"/>
	<path class="st20" d="M322.8,108.3c-0.2,0.4-0.5,0.7-0.7,1v0.2c0,1.2,0.4,2.3,1,3.2c-0.2-0.6-0.3-1.1-0.3-1.7V108.3z"/>
	<path class="st20" d="M306.4,64.6c7.3,0,13.5,3.6,16.4,8.8V43.9c0-3.1,2.5-5.5,5.6-5.5c1.9,0,3.6,0.9,4.6,2.4
		c-0.7-2.2-2.8-3.8-5.3-3.8c-3.1,0-5.6,2.4-5.6,5.5V72c-2.8-5.3-9-8.8-16.4-8.8c-14.9,0-24.8,11.2-24.8,26.2c0,5,1.1,9.5,3.2,13.4
		c-1.6-3.5-2.5-7.6-2.5-11.9C281.6,75.9,291.5,64.6,306.4,64.6z"/>
	<path class="st20" d="M322.1,89.4c0,9.3-5.8,16.3-15,16.3c-5.9,0-10.3-3-12.8-7.5c2.3,5.3,7.1,9,13.5,9c9.2,0,15-7,15-16.3
		c0-3.3-0.8-6.4-2.2-8.9C321.6,84.2,322.1,86.7,322.1,89.4z"/>
	<path class="st20" d="M383.2,84.9c0,0-10.4,0-27.1,0c-0.1,0.5-0.3,0.9-0.3,1.4c17.3,0,28.1,0,28.1,0c-0.3-1.9-0.9-3.7-1.8-5.3
		C382.6,82.3,383,83.6,383.2,84.9z"/>
	<path class="st20" d="M370.5,107.7c5.8,0,10.9-2.4,14.9-6.3c0.8-0.8,1.7-1,2.7-1c1.4,0,2.8,0.7,3.7,1.8l0,0c-0.2-0.5-0.4-1-0.7-1.5
		c-0.9-1.1-2.3-1.8-3.7-1.8c-1,0-1.9,0.2-2.7,1c-4,3.9-9.1,6.3-14.9,6.3c-5.9,0-10.7-2.9-13.2-7.4
		C358.9,104.1,364.1,107.7,370.5,107.7z"/>
	<path class="st20" d="M369.9,64.6c9.7,0,17.8,5.1,22,13c-4-8.7-12.4-14.5-22.7-14.5c-14.5,0-25.9,11.7-25.9,26.2
		c0,4.6,1.2,8.9,3.2,12.6c-1.6-3.4-2.5-7.1-2.5-11.1C344,76.3,355.3,64.6,369.9,64.6z"/>
	<path class="st20" d="M426.7,86.1c7.7,2.5,13.6,5.1,16.3,9.7c-2.1-5.5-8.5-8.4-17-11.2c-6.1-2-9.3-2.9-10.7-4.7
		C415.9,82.8,419.1,83.7,426.7,86.1z"/>
	<path class="st20" d="M402.3,105.9c0.7-1.6,2-2.6,3.6-2.6c0.7,0,1.6,0.2,2.3,0.7c4.2,2.5,9.2,4,14.1,4c5.6,0,11.7-1.6,11.7-6.1
		c0-0.9-0.2-1.7-0.8-2.4c0.1,0.3,0.1,0.6,0.1,1c0,4.5-6.1,6.1-11.7,6.1c-4.9,0-9.8-1.5-14.1-4c-0.7-0.5-1.6-0.7-2.3-0.7
		c-1.6,0-2.9,1-3.6,2.6c-0.2,0.6-0.5,1.2-0.5,1.7c0,0.9,0.3,1.8,0.9,2.6c-0.1-0.4-0.2-0.8-0.2-1.2
		C401.9,107.1,402.1,106.5,402.3,105.9z"/>
	<path class="st20" d="M424.1,64.6c7.6,0,12.4,1.6,17.2,3.9c0.9,0.4,1.7,1,2.2,1.7c-0.4-1.3-1.4-2.4-2.9-3.2
		c-4.8-2.3-9.6-3.9-17.2-3.9c-11.1,0-19.6,5.4-19.6,13.8c0,2.2,0.5,4.1,1.5,5.9c-0.5-1.3-0.8-2.8-0.8-4.4
		C404.5,70,413,64.6,424.1,64.6z"/>
	<path class="st20" d="M490.9,66.2c0.9-0.7,1.9-1.1,3.1-1.1c1.6,0,3,0.8,4,1.9c0.1,0.2,0.2,0.3,0.3,0.5c-0.2-0.7-0.6-1.3-1-1.9
		c-1-1.1-2.4-1.9-4-1.9c-1.1,0-2.2,0.4-3.1,1.1l-23.1,17.9v2L490.9,66.2z"/>
	<path class="st20" d="M456.2,44c0-3.1,2.4-5.6,5.5-5.6c1.9,0,3.5,0.9,4.5,2.4c-0.7-2.2-2.7-3.8-5.2-3.8c-3.1,0-5.5,2.5-5.5,5.6
		v66.9c0,1.2,0.4,2.3,1,3.2c-0.2-0.6-0.3-1.2-0.3-1.8V44z"/>
	<path class="st20" d="M499.4,108c0.1,0.1,0.2,0.3,0.3,0.4c-0.2-0.7-0.5-1.3-1-1.8l-17.3-19.9l-0.3,0.3L499.4,108z"/>
	<path class="st20" d="M261.5,88.5c0-3.1-0.7-5.9-2-8.1c0.8,2,1.3,4.2,1.3,6.7v23.1c0,1.2,0.4,2.3,1,3.2c-0.2-0.5-0.3-1.1-0.3-1.7
		V88.5z"/>
	<path class="st20" d="M225.3,88.1c0-13.6,10.7-23.7,23.7-23.7c8.9,0,16.8,4.8,20.8,12.1c-3.8-8.2-12-13.6-21.5-13.6
		c-13,0-23.7,10.1-23.7,23.7V110c0,1.2,0.4,2.3,1,3.2c-0.2-0.6-0.3-1.1-0.3-1.8L225.3,88.1L225.3,88.1z"/>
</g>
</svg>
